<svg width="171" height="137" viewBox="0 0 171 137" fill="none" xmlns="http://www.w3.org/2000/svg">
<rect width="171" height="137" fill="#F9FAFB"/>
<path d="M93.0235 43.8401C95.6678 43.8401 97.8115 45.9868 97.8116 48.635C97.8116 51.2832 95.6678 53.4299 93.0235 53.4299H136.8C139.444 53.4299 141.588 55.5768 141.588 58.2249C141.588 60.8731 139.444 63.0198 136.8 63.0198H151.848C154.492 63.0198 156.636 65.1667 156.636 67.8147C156.636 70.4629 154.492 72.6096 151.848 72.6096H138.852C136.207 72.6098 134.064 74.7574 134.064 77.4055C134.064 80.0534 136.208 82.2002 138.852 82.2004H142.956C145.6 82.2005 147.744 84.3472 147.744 86.9954C147.744 89.6434 145.6 91.7902 142.956 91.7903H107.388C107.036 91.7903 106.693 91.7521 106.362 91.6799C106.032 91.7522 105.688 91.7903 105.336 91.7903H43.0919C40.4477 91.7902 38.3039 89.6434 38.3038 86.9954C38.3038 84.3472 40.4476 82.2005 43.0919 82.2004H16.4161C13.7719 82.2004 11.6282 80.0535 11.628 77.4055C11.628 74.7573 13.7717 72.6096 16.4161 72.6096H43.7764C46.4206 72.6094 48.5635 70.4628 48.5635 67.8147C48.5633 65.1668 46.4204 63.02 43.7764 63.0198H26.6758C24.0316 63.0197 21.8878 60.873 21.8878 58.2249C21.8879 55.5768 24.0316 53.43 26.6758 53.4299H54.0362C51.3919 53.4299 49.2481 51.2832 49.2481 48.635C49.2481 45.9868 51.3919 43.8401 54.0362 43.8401H93.0235ZM154.584 82.2004C157.228 82.2005 159.372 84.3472 159.372 86.9954C159.372 89.6434 157.228 91.7902 154.584 91.7903C151.94 91.7903 149.796 89.6434 149.796 86.9954C149.796 84.3472 151.94 82.2004 154.584 82.2004Z" fill="#F3F7FF"/>
<path fill-rule="evenodd" clip-rule="evenodd" d="M62.928 95.8999C54.6172 95.8999 47.88 89.3062 47.88 81.1724C47.88 73.0386 54.6172 66.4449 62.928 66.4449C63.2814 66.4449 63.632 66.4568 63.9793 66.4803C63.738 65.1351 63.612 63.7497 63.612 62.3349C63.612 49.4722 74.0241 39.0449 86.868 39.0449C97.1219 39.0449 105.826 45.6908 108.919 54.916C109.652 54.8393 110.396 54.7999 111.15 54.7999C122.672 54.7999 132.012 64.0005 132.012 75.3499C132.012 86.1322 123.582 95.0281 112.86 95.885V95.8999H74.2193H62.928ZM71.1332 95.8999H66.3695Z" fill="white"/>
<path d="M71.1332 95.8999H66.3695M62.928 95.8999C54.6172 95.8999 47.88 89.3062 47.88 81.1724C47.88 73.0386 54.6172 66.4449 62.928 66.4449C63.2814 66.4449 63.632 66.4568 63.9793 66.4803C63.738 65.1351 63.612 63.7497 63.612 62.3349C63.612 49.4722 74.0241 39.0449 86.868 39.0449C97.1219 39.0449 105.826 45.6908 108.919 54.916C109.652 54.8393 110.396 54.7999 111.15 54.7999C122.672 54.7999 132.012 64.0005 132.012 75.3499C132.012 86.1322 123.582 95.0281 112.86 95.885V95.8999H74.2193H62.928Z" stroke="#7F7ED9" stroke-width="3" stroke-linecap="round"/>
<path fill-rule="evenodd" clip-rule="evenodd" d="M79.7628 44.0747C79.7628 66.1476 99.6128 84.3359 125.172 86.7915C121.969 90.7359 117.022 93.4118 111.387 93.8322V93.845H65.4882C59.9193 93.845 50.616 91.4953 50.616 81.2056C50.616 70.916 57.8487 68.5663 65.4882 68.5663C65.8131 68.5663 66.1354 68.5765 66.4546 68.5966C66.2328 67.4421 66.1938 66.2521 66.117 65.039C65.5982 56.8442 69.1681 46.5163 79.7752 43.155C79.7667 43.4614 79.7628 43.7677 79.7628 44.0747ZM86.9476 78.6092C84.8691 78.6092 83.1841 80.2766 83.1841 82.3335C83.1841 84.3904 84.8691 86.0578 86.9476 86.0578C89.026 86.0578 90.711 84.3904 90.711 82.3335C90.711 80.2766 89.026 78.6092 86.9476 78.6092Z" fill="#E8F0FE"/>
<path d="M87.21 86.3099C89.2877 86.3099 90.972 84.6231 90.972 82.5424C90.972 80.4617 89.2877 78.7749 87.21 78.7749C85.1323 78.7749 83.448 80.4617 83.448 82.5424C83.448 84.6231 85.1323 86.3099 87.21 86.3099Z" stroke="#7F7ED9" stroke-width="2"/>
<path d="M76.608 74.6652L81.396 70.9024L76.608 67.3203" stroke="#7F7ED9" stroke-width="2" stroke-linecap="round" stroke-linejoin="round"/>
<path d="M97.812 74.6652L93.024 70.9024L97.812 67.3203" stroke="#7F7ED9" stroke-width="2" stroke-linecap="round" stroke-linejoin="round"/>
<path d="M93.7079 45.895C98.16 47.075 101.675 50.5618 102.901 55.0009" stroke="#7F7ED9" stroke-width="1.51" stroke-linecap="round"/>
<path d="M108.072 34.2499C109.205 34.2499 110.124 33.3298 110.124 32.1949C110.124 31.0599 109.205 30.1399 108.072 30.1399C106.939 30.1399 106.02 31.0599 106.02 32.1949C106.02 33.3298 106.939 34.2499 108.072 34.2499Z" stroke="#7F7ED9" stroke-width="1.208"/>
<path d="M129.276 45.2101C130.409 45.2101 131.328 44.29 131.328 43.1551C131.328 42.0202 130.409 41.1001 129.276 41.1001C128.143 41.1001 127.224 42.0202 127.224 43.1551C127.224 44.29 128.143 45.2101 129.276 45.2101Z" fill="#7F7ED9"/>
<path d="M113.378 39.5637L119.095 45.2891M119.182 39.5637L113.465 45.2891L119.182 39.5637Z" stroke="#7F7ED9" stroke-width="1.51" stroke-linecap="round" stroke-linejoin="round"/>
<path d="M48.8402 51.7834L52.9442 55.8934M52.9442 51.7834L48.8402 55.8934L52.9442 51.7834Z" stroke="#7F7ED9" stroke-width="1.51" stroke-linecap="round" stroke-linejoin="round"/>
<path d="M58.14 47.265C59.2733 47.265 60.192 46.345 60.192 45.21C60.192 44.0751 59.2733 43.155 58.14 43.155C57.0067 43.155 56.088 44.0751 56.088 45.21C56.088 46.345 57.0067 47.265 58.14 47.265Z" fill="#7F7ED9"/>
</svg>
