<svg width="24" height="24" viewBox="0 0 24 24" fill="none" xmlns="http://www.w3.org/2000/svg">
<path d="M18.75 7.125V21.75C18.75 22.1478 18.592 22.5294 18.3107 22.8107C18.0294 23.092 17.6478 23.25 17.25 23.25H6.75C6.35218 23.25 5.97064 23.092 5.68934 22.8107C5.40804 22.5294 5.25 22.1478 5.25 21.75V7.125H18.75Z" fill="#F97A7A"/>
<path d="M18.75 3H5.25C4.42157 3 3.75 3.67157 3.75 4.5V5.625C3.75 6.45343 4.42157 7.125 5.25 7.125H18.75C19.5784 7.125 20.25 6.45343 20.25 5.625V4.5C20.25 3.67157 19.5784 3 18.75 3Z" fill="#EF4444"/>
<path d="M15.75 2.25V3H8.625V2.25C8.625 1.85218 8.78304 1.47064 9.06434 1.18934C9.34564 0.908035 9.72718 0.75 10.125 0.75H14.25C14.6478 0.75 15.0294 0.908035 15.3107 1.18934C15.592 1.47064 15.75 1.85218 15.75 2.25Z" fill="#F97A7A"/>
<path d="M11.25 9.375H12.75V19.875H11.25V9.375ZM8.25 10.5H9.75V18.75H8.25V10.5ZM14.25 10.5H15.75V18.75H14.25V10.5Z" fill="#EF4444"/>
</svg>
