<svg width="115" height="91" viewBox="0 0 115 91" fill="none" xmlns="http://www.w3.org/2000/svg">
<path d="M57.9033 69.1961C74.8678 69.1961 88.6202 55.4598 88.6202 38.5153C88.6202 21.5707 74.8678 7.83447 57.9033 7.83447C40.9387 7.83447 27.1863 21.5707 27.1863 38.5153C27.1863 55.4598 40.9387 69.1961 57.9033 69.1961Z" fill="#FBDEDE"/>
<path d="M99.8164 43.4332V39.8696C99.8164 39.19 99.5462 38.5383 99.0651 38.0578C98.584 37.5773 97.9315 37.3073 97.2512 37.3073H88.1967C87.5164 37.3073 86.8639 37.0374 86.3828 36.5569C85.9017 36.0764 85.6314 35.4246 85.6314 34.7451V31.1815C85.6314 30.5019 85.9017 29.8502 86.3828 29.3697C86.8639 28.8892 87.5164 28.6193 88.1967 28.6193H88.4826C88.8195 28.6193 89.153 28.553 89.4643 28.4242C89.7755 28.2955 90.0583 28.1067 90.2965 27.8688C90.5347 27.6309 90.7237 27.3484 90.8526 27.0375C90.9815 26.7267 91.0479 26.3935 91.0479 26.057V22.4934C91.0479 22.1569 90.9815 21.8238 90.8526 21.5129C90.7237 21.202 90.5347 20.9196 90.2965 20.6816C90.0583 20.4437 89.7755 20.255 89.4643 20.1262C89.153 19.9975 88.8195 19.9312 88.4826 19.9312L28.9266 19.9312C28.2462 19.9312 27.5937 20.2011 27.1127 20.6816C26.6316 21.1621 26.3613 21.8138 26.3613 22.4934V26.057C26.3613 26.3935 26.4277 26.7267 26.5566 27.0375C26.6855 27.3484 26.8745 27.6308 27.1127 27.8688C27.3509 28.1067 27.6337 28.2954 27.9449 28.4242C28.2561 28.553 28.5897 28.6192 28.9266 28.6192C29.6069 28.6192 30.2594 28.8892 30.7405 29.3697C31.2216 29.8502 31.4918 30.5019 31.4918 31.1815V34.7451C31.4918 35.0815 31.4255 35.4147 31.2966 35.7256C31.1676 36.0365 30.9787 36.3189 30.7405 36.5568C30.5023 36.7948 30.2195 36.9835 29.9083 37.1123C29.597 37.241 29.2634 37.3073 28.9266 37.3073H19.0065C18.3261 37.3073 17.6737 37.5773 17.1926 38.0578C16.7115 38.5383 16.4412 39.19 16.4412 39.8695V43.4331C16.4412 44.1127 16.7115 44.7644 17.1926 45.2449C17.6737 45.7254 18.3261 45.9954 19.0065 45.9954H22.899C23.5793 45.9954 24.2318 46.2653 24.7129 46.7458C25.194 47.2263 25.4642 47.8781 25.4642 48.5576V52.1212C25.4642 52.8008 25.194 53.4525 24.7129 53.933C24.2318 54.4135 23.5793 54.6835 22.899 54.6835H22.8896C22.5527 54.6835 22.2191 54.7497 21.9079 54.8785C21.5967 55.0073 21.3139 55.196 21.0757 55.4339C20.8375 55.6719 20.6485 55.9543 20.5196 56.2652C20.3907 56.576 20.3243 56.9092 20.3243 57.2457V60.8093C20.3243 61.4888 20.5946 62.1406 21.0757 62.6211C21.5567 63.1016 22.2092 63.3715 22.8896 63.3715H23.4527C24.1331 63.3715 24.7856 63.6415 25.2666 64.122C25.7477 64.6025 26.018 65.2542 26.018 65.9338V69.4974C26.018 69.8339 25.9516 70.167 25.8227 70.4779C25.6938 70.7888 25.5048 71.0712 25.2666 71.3092C25.0284 71.5471 24.7456 71.7358 24.4344 71.8646C24.1232 71.9933 23.7896 72.0596 23.4527 72.0596H17.7487C17.4119 72.0596 17.0783 72.1259 16.767 72.2547C16.4558 72.3834 16.173 72.5722 15.9348 72.8101C15.6966 73.048 15.5077 73.3305 15.3787 73.6413C15.2498 73.9522 15.1835 74.2854 15.1835 74.6219V78.1855C15.1835 78.865 15.4537 79.5167 15.9348 79.9972C16.4159 80.4777 17.0684 80.7477 17.7487 80.7477L89.8598 80.7477C90.1967 80.7477 90.5303 80.6815 90.8415 80.5527C91.1527 80.4239 91.4355 80.2352 91.6737 79.9973C91.9119 79.7593 92.1009 79.4769 92.2298 79.166C92.3587 78.8552 92.425 78.522 92.425 78.1855V74.6219C92.425 74.2854 92.3587 73.9522 92.2298 73.6414C92.1009 73.3305 91.9119 73.048 91.6737 72.8101C91.4355 72.5722 91.1527 72.3835 90.8415 72.2547C90.5303 72.1259 90.1967 72.0597 89.8598 72.0597H87.6356C87.2987 72.0597 86.9651 71.9934 86.6539 71.8646C86.3427 71.7358 86.0599 71.5471 85.8217 71.3092C85.5835 71.0713 85.3945 70.7888 85.2656 70.4779C85.1367 70.1671 85.0703 69.8339 85.0703 69.4974V65.9338C85.0703 65.5973 85.1367 65.2641 85.2656 64.9533C85.3945 64.6424 85.5835 64.3599 85.8217 64.122C86.0599 63.8841 86.3427 63.6954 86.6539 63.5666C86.9651 63.4378 87.2987 63.3715 87.6356 63.3715H92.88C93.5604 63.3715 94.2129 63.1016 94.6939 62.6211C95.175 62.1406 95.4453 61.4889 95.4453 60.8093V57.2457C95.4453 56.5662 95.175 55.9145 94.694 55.434C94.2129 54.9534 93.5604 54.6835 92.88 54.6835H91.2891C90.6088 54.6835 89.9563 54.4135 89.4752 53.933C88.9941 53.4525 88.7239 52.8008 88.7239 52.1213V48.5576C88.7239 47.8781 88.9941 47.2264 89.4752 46.7459C89.9563 46.2654 90.6088 45.9954 91.2891 45.9954H97.2512C97.5881 45.9954 97.9216 45.9291 98.2329 45.8004C98.5441 45.6716 98.8269 45.4829 99.0651 45.2449C99.3033 45.007 99.4922 44.7246 99.6212 44.4137C99.7501 44.1028 99.8164 43.7696 99.8164 43.4332Z" fill="#FBDEDE"/>
<path d="M46.6704 46.1343H52.0348" stroke="#FF9696" stroke-width="1.26838" stroke-miterlimit="10"/>
<path d="M46.6704 47.6782H52.0348" stroke="#FF9696" stroke-width="1.26838" stroke-miterlimit="10"/>
<path d="M46.6704 49.2227H52.0348" stroke="#FF9696" stroke-width="1.26838" stroke-miterlimit="10"/>
<path d="M36.6628 19.4727H42.0273" stroke="#FF9696" stroke-width="1.26838" stroke-miterlimit="10" stroke-linecap="round"/>
<path d="M36.6628 21.0171H42.0273" stroke="#FF9696" stroke-width="1.26838" stroke-miterlimit="10" stroke-linecap="round"/>
<path d="M36.6628 22.5615H42.0273" stroke="#FF9696" stroke-width="1.26838" stroke-miterlimit="10" stroke-linecap="round"/>
<path d="M84.9662 44.2446H90.3306" stroke="#FF9696" stroke-width="1.26838" stroke-miterlimit="10" stroke-linecap="round"/>
<path d="M84.9662 45.7891H90.3306" stroke="#FF9696" stroke-width="1.26838" stroke-miterlimit="10" stroke-linecap="round"/>
<path d="M84.9662 47.3335H90.3306" stroke="#FF9696" stroke-width="1.26838" stroke-miterlimit="10" stroke-linecap="round"/>
<path d="M29.2415 67.6519H34.6059" stroke="#FF9696" stroke-width="1.26838" stroke-miterlimit="10" stroke-linecap="round"/>
<path d="M29.2415 69.1963H34.6059" stroke="#FF9696" stroke-width="1.26838" stroke-miterlimit="10" stroke-linecap="round"/>
<path d="M29.2415 70.7407H34.6059" stroke="#FF9696" stroke-width="1.26838" stroke-miterlimit="10" stroke-linecap="round"/>
<path d="M30.0394 46.4786C31.5461 46.4786 32.7675 45.2587 32.7675 43.7537C32.7675 42.2488 31.5461 41.0288 30.0394 41.0288C28.5327 41.0288 27.3113 42.2488 27.3113 43.7537C27.3113 45.2587 28.5327 46.4786 30.0394 46.4786Z" fill="#FF9696"/>
<path d="M30.7227 39.6586C31.5075 39.6586 32.1437 39.0231 32.1437 38.2392C32.1437 37.4553 31.5075 36.8198 30.7227 36.8198C29.9379 36.8198 29.3016 37.4553 29.3016 38.2392C29.3016 39.0231 29.9379 39.6586 30.7227 39.6586Z" fill="#FF9696"/>
<path d="M35.7242 39.2087C36.1769 39.2087 36.5439 38.8422 36.5439 38.39C36.5439 37.9378 36.1769 37.5713 35.7242 37.5713C35.2715 37.5713 34.9045 37.9378 34.9045 38.39C34.9045 38.8422 35.2715 39.2087 35.7242 39.2087Z" fill="#FF9696"/>
<path d="M36.2106 44.8961C37.2958 44.8961 38.1756 44.0173 38.1756 42.9334C38.1756 41.8494 37.2958 40.9707 36.2106 40.9707C35.1254 40.9707 34.2456 41.8494 34.2456 42.9334C34.2456 44.0173 35.1254 44.8961 36.2106 44.8961Z" fill="#FF9696"/>
<path d="M82.3773 76.7077C83.884 76.7077 85.1054 75.4877 85.1054 73.9827C85.1054 72.4778 83.884 71.2578 82.3773 71.2578C80.8706 71.2578 79.6492 72.4778 79.6492 73.9827C79.6492 75.4877 80.8706 76.7077 82.3773 76.7077Z" fill="#FF9696"/>
<path d="M78.5622 71.3573C79.347 71.3573 79.9832 70.7218 79.9832 69.9379C79.9832 69.154 79.347 68.5186 78.5622 68.5186C77.7773 68.5186 77.1411 69.154 77.1411 69.9379C77.1411 70.7218 77.7773 71.3573 78.5622 71.3573Z" fill="#FF9696"/>
<path d="M81.8702 67.0071C82.3229 67.0071 82.6899 66.6405 82.6899 66.1884C82.6899 65.7362 82.3229 65.3696 81.8702 65.3696C81.4175 65.3696 81.0505 65.7362 81.0505 66.1884C81.0505 66.6405 81.4175 67.0071 81.8702 67.0071Z" fill="#FF9696"/>
<path d="M85.6828 70.6758C86.768 70.6758 87.6478 69.7971 87.6478 68.7132C87.6478 67.6292 86.768 66.7505 85.6828 66.7505C84.5975 66.7505 83.7178 67.6292 83.7178 68.7132C83.7178 69.7971 84.5975 70.6758 85.6828 70.6758Z" fill="#FF9696"/>
<path d="M79.6484 30.6544C81.1551 30.6544 82.3766 29.4344 82.3766 27.9295C82.3766 26.4246 81.1551 25.2046 79.6484 25.2046C78.1417 25.2046 76.9203 26.4246 76.9203 27.9295C76.9203 29.4344 78.1417 30.6544 79.6484 30.6544Z" fill="#FF9696"/>
<path d="M74.7298 25.3046C75.5146 25.3046 76.1508 24.6691 76.1508 23.8852C76.1508 23.1013 75.5146 22.4658 74.7298 22.4658C73.9449 22.4658 73.3087 23.1013 73.3087 23.8852C73.3087 24.6691 73.9449 25.3046 74.7298 25.3046Z" fill="#FF9696"/>
<path d="M80.1016 24.4278C81.1868 24.4278 82.0666 23.5491 82.0666 22.4651C82.0666 21.3812 81.1868 20.5024 80.1016 20.5024C79.0164 20.5024 78.1366 21.3812 78.1366 22.4651C78.1366 23.5491 79.0164 24.4278 80.1016 24.4278Z" fill="#FF9696"/>
<path d="M49.0397 65.1095C50.5464 65.1095 51.7678 63.8895 51.7678 62.3846C51.7678 60.8797 50.5464 59.6597 49.0397 59.6597C47.533 59.6597 46.3115 60.8797 46.3115 62.3846C46.3115 63.8895 47.533 65.1095 49.0397 65.1095Z" fill="#FF9696"/>
<path d="M45.2246 59.7591C46.0094 59.7591 46.6457 59.1237 46.6457 58.3398C46.6457 57.5559 46.0094 56.9204 45.2246 56.9204C44.4398 56.9204 43.8036 57.5559 43.8036 58.3398C43.8036 59.1237 44.4398 59.7591 45.2246 59.7591Z" fill="#FF9696"/>
<path d="M48.5327 55.4084C48.9854 55.4084 49.3524 55.0419 49.3524 54.5897C49.3524 54.1375 48.9854 53.771 48.5327 53.771C48.08 53.771 47.713 54.1375 47.713 54.5897C47.713 55.0419 48.08 55.4084 48.5327 55.4084Z" fill="#FF9696"/>
<path d="M52.3452 59.0777C53.4305 59.0777 54.3102 58.199 54.3102 57.115C54.3102 56.0311 53.4305 55.1523 52.3452 55.1523C51.26 55.1523 50.3802 56.0311 50.3802 57.115C50.3802 58.199 51.26 59.0777 52.3452 59.0777Z" fill="#FF9696"/>
<path d="M55.7693 27.1925C61.3473 19.3415 64.8102 12.2264 63.5039 11.3005L62.0072 10.2396C60.7008 9.31358 55.1199 14.9275 49.5419 22.7785C43.9638 30.6295 40.501 37.7445 41.8074 38.6705L43.3041 39.7314C44.6104 40.6574 50.1913 35.0435 55.7693 27.1925Z" fill="#EF4444"/>
<path d="M54.2725 26.1318C59.8505 18.2808 63.3133 11.1657 62.007 10.2397C60.7006 9.31376 55.1198 14.9276 49.5418 22.7786C43.9638 30.6296 40.5009 37.7448 41.8073 38.6707C43.1136 39.5967 48.6945 33.9828 54.2725 26.1318Z" fill="#FF9696"/>
<path d="M53.0271 20.2717C54.579 21.3717 50.008 27.8052 48.4562 26.7053C46.9044 25.6054 46.6696 23.2735 47.9319 21.4969C49.1941 19.7203 51.4753 19.1718 53.0271 20.2717Z" fill="#EF4444"/>
<path d="M42.0272 44.6387L46.1239 80.434H46.1683C46.1683 81.6544 52.1277 82.6437 59.479 82.6437C66.8302 82.6437 72.7896 81.6544 72.7896 80.434H72.8341L76.9308 44.6387H42.0272Z" fill="#FF9696"/>
<path d="M59.4789 47.5357C69.1172 47.5357 76.9306 46.2387 76.9306 44.6387C76.9306 43.0387 69.1172 41.7417 59.4789 41.7417C49.8405 41.7417 42.0271 43.0387 42.0271 44.6387C42.0271 46.2387 49.8405 47.5357 59.4789 47.5357Z" fill="#EF4444"/>
<path d="M60.3649 52.6782H59.5814C59.386 52.6782 59.2275 52.8365 59.2275 53.0317V78.3261C59.2275 78.5213 59.386 78.6795 59.5814 78.6795H60.3649C60.5603 78.6795 60.7187 78.5213 60.7187 78.3261V53.0317C60.7187 52.8365 60.5603 52.6782 60.3649 52.6782Z" fill="#EF4444"/>
<path d="M67.9245 78.714L66.9817 78.5838C66.8313 78.563 66.7176 78.3005 66.7279 77.9975L67.5742 53.1544C67.5845 52.8514 67.7149 52.6226 67.8654 52.6434L68.8081 52.7736C68.9586 52.7944 69.0722 53.0569 69.0619 53.3599L68.2156 78.2029C68.2053 78.506 68.075 78.7348 67.9245 78.714Z" fill="#EF4444"/>
<path d="M51.4787 78.714L52.4215 78.5838C52.572 78.563 52.6856 78.3005 52.6753 77.9975L51.829 53.1544C51.8187 52.8514 51.6884 52.6226 51.5379 52.6434L50.5951 52.7736C50.4446 52.7944 50.331 53.0569 50.3413 53.3599L51.1876 78.2029C51.1979 78.506 51.3283 78.7348 51.4787 78.714Z" fill="#EF4444"/>
<path d="M67.1419 40.0562L65.9141 44.2142L55.3005 41.0874C55.2441 41.0707 55.1914 41.0431 55.1456 41.0062C55.0998 40.9692 55.0617 40.9236 55.0336 40.872C55.0054 40.8203 54.9877 40.7636 54.9815 40.7052C54.9753 40.6467 54.9807 40.5875 54.9973 40.5311L59.9645 23.7103C59.9811 23.6539 60.0088 23.6013 60.0458 23.5556C60.0828 23.5098 60.1284 23.4718 60.1801 23.4437C60.2318 23.4156 60.2886 23.3979 60.3471 23.3917C60.4057 23.3855 60.4649 23.3908 60.5214 23.4075L74.885 27.639C74.9414 27.6556 74.9941 27.6832 75.0399 27.7202C75.0857 27.7571 75.1237 27.8028 75.1519 27.8544C75.18 27.9061 75.1977 27.9627 75.204 28.0212C75.2102 28.0797 75.2048 28.1388 75.1882 28.1952L71.322 41.2877L67.1419 40.0562Z" fill="white"/>
<path d="M65.9141 44.2141L67.1419 40.0562L71.3219 41.2875L65.9141 44.2141Z" fill="#EF4444"/>
<path d="M66.7563 28.7297L61.4667 27.1714L60.7545 29.5833L66.044 31.1416L66.7563 28.7297Z" fill="#EF4444"/>
<path d="M67.7161 30.3232L71.7671 31.5167" stroke="#EF4444" stroke-width="1.26838" stroke-miterlimit="10"/>
<path d="M58.4164 37.6909L62.4674 38.8844" stroke="#EF4444" stroke-width="1.26838" stroke-miterlimit="10"/>
<path d="M60.199 31.4644L70.8556 34.6038" stroke="#EF4444" stroke-width="1.26838" stroke-miterlimit="10"/>
<path d="M59.5875 33.5347L70.2441 36.6741" stroke="#EF4444" stroke-width="1.26838" stroke-miterlimit="10"/>
<path d="M58.9762 35.605L69.6328 38.7444" stroke="#EF4444" stroke-width="1.26838" stroke-miterlimit="10"/>
</svg>
