<svg width="175" height="132" viewBox="0 0 175 132" fill="none" xmlns="http://www.w3.org/2000/svg">
<rect x="1" width="174" height="131" fill="#F9FAFB"/>
<path d="M95.6562 41.92C98.3469 41.9202 100.528 43.9729 100.528 46.505C100.528 49.0372 98.3469 51.0899 95.6562 51.09H140.2C142.891 51.0901 145.072 53.1428 145.072 55.6749C145.072 58.2071 142.891 60.2598 140.2 60.2599H155.512C158.202 60.2599 160.384 62.3127 160.384 64.8448C160.384 67.3771 158.202 69.4298 155.512 69.4298H142.288C139.597 69.4298 137.416 71.4827 137.416 74.0148C137.416 76.547 139.597 78.5997 142.288 78.5997H146.464C149.154 78.5997 151.336 80.6526 151.336 83.1847C151.336 85.7169 149.155 87.7697 146.464 87.7697H110.272C109.914 87.7697 109.565 87.7332 109.229 87.6642C108.892 87.7333 108.542 87.7697 108.184 87.7697H44.8477C42.1571 87.7695 39.9756 85.7168 39.9756 83.1847C39.9758 80.6527 42.1572 78.5999 44.8477 78.5997H17.7041C15.0134 78.5997 12.832 76.547 12.832 74.0148C12.8322 71.4827 15.0135 69.4298 17.7041 69.4298H45.5439C48.2347 69.4298 50.416 67.3771 50.416 64.8448C50.4159 62.3127 48.2346 60.2599 45.5439 60.2599H28.1436C25.453 60.2596 23.2725 58.207 23.2725 55.6749C23.2725 53.1429 25.4531 51.0902 28.1436 51.09H55.9844C53.2936 51.09 51.1123 49.0372 51.1123 46.505C51.1123 43.9728 53.2937 41.92 55.9844 41.92H95.6562ZM158.296 78.5997C160.987 78.5997 163.168 80.6526 163.168 83.1847C163.168 85.7169 160.987 87.7697 158.296 87.7697C155.605 87.7696 153.424 85.7169 153.424 83.1847C153.424 80.6527 155.605 78.5998 158.296 78.5997Z" fill="#EFF0FF"/>
<path d="M49.8047 40.4161L53.2155 113.692C53.323 116.033 54.9747 117.856 56.9755 117.856H108.058C110.059 117.856 111.71 116.033 111.818 113.692L115.229 40.4161H49.8047ZM65.3415 111.115H65.2609C64.4955 111.115 63.8644 110.423 63.824 109.528L61.0444 49.3418C61.0041 48.4304 61.6084 47.6289 62.3873 47.5818C63.1661 47.5347 63.8509 48.2418 63.9047 49.169L66.6843 109.339C66.7247 110.266 66.1204 111.052 65.3415 111.115ZM83.9535 109.433C83.9535 110.36 83.3089 111.115 82.5167 111.115C81.7243 111.115 81.0798 110.36 81.0798 109.433V49.2633C81.0798 48.3361 81.7243 47.5818 82.5167 47.5818C83.3089 47.5818 83.9535 48.3361 83.9535 49.2633V109.433ZM101.209 109.528C101.156 110.423 100.524 111.115 99.7724 111.115H99.6918C98.9129 111.052 98.3087 110.266 98.3489 109.339L101.129 49.169C101.169 48.2418 101.854 47.5347 102.633 47.5818C103.425 47.6289 104.029 48.4304 103.989 49.3418L101.209 109.528Z" fill="#7F7ED9"/>
<path d="M119.861 20.0281C119.787 19.3478 119.251 18.8712 118.671 18.9505L95.9918 22.347L95.5598 18.3937C95.2691 15.7315 93.1772 13.8427 90.9058 14.1837L71.6307 17.0707C70.5281 17.2359 69.5472 17.8933 68.868 18.921C68.1882 19.9496 67.8919 21.2268 68.0331 22.5162L68.4656 26.4695L46.5306 29.7546C45.9485 29.8421 45.5356 30.4676 45.6097 31.1487L46.1386 35.9858C46.214 36.666 46.7458 37.1493 47.3292 37.0634L119.469 26.2593C120.051 26.1718 120.464 25.5463 120.39 24.8652L119.861 20.0281ZM70.8712 22.091C70.8272 21.6887 70.9201 21.2905 71.1318 20.97C71.3435 20.6487 71.6503 20.4435 71.994 20.392L91.2691 17.5049C91.9887 17.4035 92.6308 17.9889 92.7217 18.8188L93.1535 22.7721L71.3037 26.0444L70.8712 22.091Z" fill="#C3C7FF"/>
</svg>
