<svg width="85" height="85" viewBox="0 0 85 85" fill="none" xmlns="http://www.w3.org/2000/svg">
<path d="M42.5004 0C63.1557 0.0002041 79.8998 16.7451 79.8998 37.4004C79.8996 54.3172 68.6676 68.6086 53.2546 73.2285C52.848 73.3504 52.457 73.5228 52.0987 73.7502L35.8105 84.0877C33.3938 85.6214 30.1799 84.4493 29.3181 81.7198L25.9318 70.9957C25.9286 70.9856 25.9366 70.9754 25.9472 70.9761C25.9637 70.9773 25.9697 70.9548 25.9549 70.9475C13.5992 64.8422 5.10012 52.115 5.09998 37.4004C5.09998 16.7449 21.8449 0 42.5004 0Z" fill="#EF4444"/>
<path d="M53.6941 30.6184C54.5969 29.7156 54.5969 28.252 53.6941 27.3492L53.2021 26.8572C52.2994 25.9545 50.8357 25.9545 49.933 26.8572L43 33.7903L36.0669 26.8572C35.1642 25.9545 33.7005 25.9545 32.7978 26.8572L32.3058 27.3492C31.403 28.252 31.403 29.7156 32.3058 30.6184L39.2388 37.5514L32.3058 44.4844C31.403 45.3872 31.403 46.8508 32.3058 47.7536L32.7978 48.2456C33.7005 49.1483 35.1642 49.1483 36.0669 48.2456L43 41.3126L49.933 48.2456C50.8357 49.1483 52.2994 49.1483 53.2021 48.2456L53.6941 47.7536C54.5969 46.8508 54.5969 45.3872 53.6941 44.4844L46.7611 37.5514L53.6941 30.6184Z" fill="white"/>
</svg>
