<svg width="24" height="24" viewBox="0 0 24 24" fill="none" xmlns="http://www.w3.org/2000/svg">
<path d="M18.5 8.37006V20.0001C18.4998 20.663 18.2363 21.2988 17.7675 21.7676C17.2987 22.2364 16.663 22.4998 16 22.5001H4C3.33703 22.4998 2.70129 22.2364 2.2325 21.7676C1.76371 21.2988 1.50024 20.663 1.5 20.0001V4.00007C1.50024 3.3371 1.76371 2.70135 2.2325 2.23256C2.70129 1.76378 3.33703 1.50031 4 1.50007H11.73C11.8204 1.49925 11.9107 1.50594 12 1.52007C12.5743 1.58076 13.1097 1.83875 13.515 2.25007L17.79 6.62007C18.1574 6.99624 18.3955 7.47956 18.47 8.00007C18.4901 8.12237 18.5002 8.24612 18.5 8.37006Z" fill="#F7F6F5"/>
<path d="M9 6.5H5C4.86739 6.5 4.74021 6.44732 4.64645 6.35355C4.55268 6.25979 4.5 6.13261 4.5 6C4.5 5.86739 4.55268 5.74021 4.64645 5.64645C4.74021 5.55268 4.86739 5.5 5 5.5H9C9.13261 5.5 9.25979 5.55268 9.35355 5.64645C9.44732 5.74021 9.5 5.86739 9.5 6C9.5 6.13261 9.44732 6.25979 9.35355 6.35355C9.25979 6.44732 9.13261 6.5 9 6.5ZM12 9.5H5C4.86739 9.5 4.74021 9.44732 4.64645 9.35355C4.55268 9.25979 4.5 9.13261 4.5 9C4.5 8.86739 4.55268 8.74021 4.64645 8.64645C4.74021 8.55268 4.86739 8.5 5 8.5H12C12.1326 8.5 12.2598 8.55268 12.3536 8.64645C12.4473 8.74021 12.5 8.86739 12.5 9C12.5 9.13261 12.4473 9.25979 12.3536 9.35355C12.2598 9.44732 12.1326 9.5 12 9.5ZM13 12.5H5C4.86739 12.5 4.74021 12.4473 4.64645 12.3536C4.55268 12.2598 4.5 12.1326 4.5 12C4.5 11.8674 4.55268 11.7402 4.64645 11.6464C4.74021 11.5527 4.86739 11.5 5 11.5H13C13.1326 11.5 13.2598 11.5527 13.3536 11.6464C13.4473 11.7402 13.5 11.8674 13.5 12C13.5 12.1326 13.4473 12.2598 13.3536 12.3536C13.2598 12.4473 13.1326 12.5 13 12.5ZM10 15.5H5C4.86739 15.5 4.74021 15.4473 4.64645 15.3536C4.55268 15.2598 4.5 15.1326 4.5 15C4.5 14.8674 4.55268 14.7402 4.64645 14.6464C4.74021 14.5527 4.86739 14.5 5 14.5H10C10.1326 14.5 10.2598 14.5527 10.3536 14.6464C10.4473 14.7402 10.5 14.8674 10.5 15C10.5 15.1326 10.4473 15.2598 10.3536 15.3536C10.2598 15.4473 10.1326 15.5 10 15.5ZM10 18.5H5C4.86739 18.5 4.74021 18.4473 4.64645 18.3536C4.55268 18.2598 4.5 18.1326 4.5 18C4.5 17.8674 4.55268 17.7402 4.64645 17.6464C4.74021 17.5527 4.86739 17.5 5 17.5H10C10.1326 17.5 10.2598 17.5527 10.3536 17.6464C10.4473 17.7402 10.5 17.8674 10.5 18C10.5 18.1326 10.4473 18.2598 10.3536 18.3536C10.2598 18.4473 10.1326 18.5 10 18.5Z" fill="#007DA1"/>
<path d="M18.47 8.00002H14.5C13.837 7.99978 13.2013 7.73631 12.7325 7.26752C12.2637 6.79873 12.0002 6.16299 12 5.50002V1.52002C12.5743 1.58071 13.1097 1.8387 13.515 2.25002L17.79 6.62002C18.1574 6.9962 18.3955 7.47951 18.47 8.00002ZM21.7295 13.1221C20.2446 12.7115 18.8319 12.0741 17.5415 11.2324C17.38 11.1285 17.192 11.0728 16.9999 11.0729C16.8079 11.073 16.6199 11.1284 16.4585 11.2324C15.1683 12.074 13.7558 12.7113 12.271 13.1216C12.052 13.1737 11.8569 13.298 11.7171 13.4744C11.5772 13.6508 11.5008 13.8691 11.5 14.0943V14.9483C11.4987 16.1832 11.803 17.3993 12.3857 18.4881C12.9684 19.5769 13.8115 20.5046 14.8398 21.1885L16.4448 22.2583C16.6089 22.3687 16.802 22.4277 16.9997 22.4278C17.1974 22.4279 17.3906 22.3691 17.5547 22.2588L19.1602 21.1885C20.1885 20.5046 21.0316 19.5769 21.6143 18.4881C22.1971 17.3993 22.5013 16.1832 22.5 14.9483V14.0943C22.4994 13.8692 22.423 13.651 22.2832 13.4746C22.1435 13.2983 21.9484 13.1741 21.7295 13.1221Z" fill="#13E4EA"/>
<path d="M16.5 18.0002C16.4343 18.0003 16.3693 17.9874 16.3086 17.9623C16.2479 17.9371 16.1928 17.9002 16.1465 17.8537L15.1465 16.8537C15.0541 16.7597 15.0026 16.633 15.0032 16.5012C15.0038 16.3694 15.0565 16.2431 15.1497 16.1499C15.2429 16.0567 15.3691 16.0041 15.5009 16.0035C15.6327 16.0029 15.7594 16.0544 15.8535 16.1467L16.5 16.7932L18.1465 15.1467C18.1928 15.0998 18.2479 15.0625 18.3087 15.037C18.3695 15.0115 18.4347 14.9983 18.5006 14.998C18.5666 14.9978 18.6319 15.0107 18.6928 15.0358C18.7537 15.0609 18.8091 15.0979 18.8557 15.1445C18.9023 15.1911 18.9393 15.2465 18.9644 15.3074C18.9895 15.3683 19.0024 15.4337 19.0021 15.4996C19.0019 15.5655 18.9887 15.6307 18.9632 15.6915C18.9377 15.7523 18.9004 15.8074 18.8535 15.8537L16.8535 17.8537C16.8071 17.9002 16.752 17.9371 16.6913 17.9623C16.6307 17.9874 16.5656 18.0003 16.5 18.0002Z" fill="#F7F6F5"/>
<path d="M16 22.5H4C3.3372 22.4992 2.70176 22.2356 2.23309 21.7669C1.76442 21.2982 1.50078 20.6628 1.5 20V4C1.50078 3.3372 1.76442 2.70176 2.23309 2.23309C2.70176 1.76442 3.3372 1.50078 4 1.5H11.73C12.0631 1.50022 12.3928 1.56678 12.6999 1.6958C13.007 1.82482 13.2853 2.01372 13.5186 2.25146L17.7876 6.6206C18.2452 7.0879 18.501 7.71613 18.5 8.37011V12.0952C18.5 12.2278 18.4473 12.355 18.3536 12.4488C18.2598 12.5425 18.1326 12.5952 18 12.5952C17.8674 12.5952 17.7402 12.5425 17.6464 12.4488C17.5527 12.355 17.5 12.2278 17.5 12.0952V8.37011C17.5006 7.97711 17.3468 7.59959 17.0718 7.31885L12.8027 2.9497C12.6628 2.80722 12.4958 2.69406 12.3116 2.61685C12.1275 2.53963 11.9297 2.49991 11.73 2.5H4C3.60231 2.50043 3.22103 2.65861 2.93982 2.93982C2.65861 3.22103 2.50043 3.60231 2.5 4V20C2.50043 20.3977 2.65861 20.779 2.93982 21.0602C3.22103 21.3414 3.60231 21.4996 4 21.5H16C16.1883 21.5007 16.375 21.4644 16.5493 21.3931C16.61 21.3679 16.675 21.355 16.7407 21.3551C16.8063 21.3551 16.8713 21.368 16.932 21.3932C16.9926 21.4184 17.0477 21.4552 17.0941 21.5017C17.1405 21.5481 17.1773 21.6033 17.2024 21.664C17.2275 21.7246 17.2404 21.7897 17.2403 21.8553C17.2402 21.921 17.2272 21.986 17.2021 22.0466C17.1769 22.1073 17.14 22.1623 17.0935 22.2087C17.047 22.2551 16.9918 22.2918 16.9312 22.3169C16.6359 22.4387 16.3194 22.501 16 22.5Z" fill="#007DA1"/>
<path d="M15.7949 8H14.5C13.8372 7.99922 13.2018 7.73558 12.7331 7.26691C12.2644 6.79824 12.0008 6.1628 12 5.5V2.15479C12 2.02218 12.0527 1.895 12.1465 1.80123C12.2402 1.70746 12.3674 1.65479 12.5 1.65479C12.6326 1.65479 12.7598 1.70746 12.8536 1.80123C12.9473 1.895 13 2.02218 13 2.15479V5.5C13.0004 5.89769 13.1586 6.27897 13.4398 6.56018C13.721 6.84139 14.1023 6.99957 14.5 7H15.7949C15.9275 7 16.0547 7.05268 16.1485 7.14645C16.2422 7.24021 16.2949 7.36739 16.2949 7.5C16.2949 7.63261 16.2422 7.75979 16.1485 7.85355C16.0547 7.94732 15.9275 8 15.7949 8ZM17 22.4277C16.8022 22.4276 16.609 22.3686 16.4448 22.2583L14.8398 21.1885C13.8115 20.5046 12.9684 19.5769 12.3857 18.4881C11.803 17.3993 11.4987 16.1832 11.5 14.9482V14.0942C11.5008 13.8691 11.5772 13.6508 11.7171 13.4744C11.8569 13.298 12.052 13.1737 12.271 13.1216C13.7558 12.7112 15.1683 12.074 16.4585 11.2324C16.6199 11.1283 16.8079 11.073 16.9999 11.0729C17.192 11.0728 17.38 11.128 17.5415 11.2319C18.8319 12.0736 20.2446 12.7115 21.7295 13.1221C21.9484 13.1741 22.1435 13.2983 22.2832 13.4746C22.423 13.651 22.4994 13.8692 22.5 14.0942V14.9482C22.5013 16.1832 22.1971 17.3993 21.6143 18.4881C21.0316 19.5769 20.1885 20.5046 19.1602 21.1885L17.5547 22.2588C17.3906 22.3687 17.1975 22.4275 17 22.4277ZM16.9985 12.0718C15.6161 12.9741 14.1018 13.6559 12.5098 14.0928L12.5 14.9482C12.4988 16.0185 12.7625 17.0725 13.2676 18.0161C13.7726 18.9598 14.5033 19.7638 15.3945 20.3564L17 21.4268L18.6055 20.3564C19.4967 19.7638 20.2274 18.9598 20.7325 18.0161C21.2375 17.0725 21.5012 16.0185 21.5 14.9482V14.0942C19.9043 13.6572 18.3861 12.9753 16.9995 12.0727L16.9985 12.0718Z" fill="#007DA1"/>
</svg>
