<svg width="16" height="16" viewBox="0 0 16 16" fill="none" xmlns="http://www.w3.org/2000/svg">
<path d="M6 6.66667C6.73638 6.66667 7.33333 6.06971 7.33333 5.33333C7.33333 4.59695 6.73638 4 6 4C5.26362 4 4.66667 4.59695 4.66667 5.33333C4.66667 6.06971 5.26362 6.66667 6 6.66667Z" stroke="#7F7ED9" stroke-linecap="round" stroke-linejoin="round"/>
<path d="M8.66667 1.3335H6C2.66667 1.3335 1.33333 2.66683 1.33333 6.00016V10.0002C1.33333 13.3335 2.66667 14.6668 6 14.6668H10C13.3333 14.6668 14.6667 13.3335 14.6667 10.0002V6.66683" stroke="#7F7ED9" stroke-linecap="round" stroke-linejoin="round"/>
<path d="M12.76 1.72644L10.34 4.14644C10.2467 4.23977 10.1533 4.41977 10.14 4.55311L10.0067 5.47977C9.96 5.81311 10.1933 6.04644 10.5267 5.99977L11.4533 5.86644C11.58 5.84644 11.7667 5.75977 11.86 5.66644L14.28 3.24644C14.7 2.82644 14.8933 2.34644 14.28 1.73311C13.66 1.10644 13.18 1.30644 12.76 1.72644Z" stroke="#7F7ED9" stroke-miterlimit="10" stroke-linecap="round" stroke-linejoin="round"/>
<path d="M12.4133 2.07324C12.62 2.80658 13.1933 3.37991 13.9267 3.58658" stroke="#7F7ED9" stroke-miterlimit="10" stroke-linecap="round" stroke-linejoin="round"/>
<path d="M1.78 12.6335L5.06667 10.4269C5.59333 10.0735 6.35333 10.1135 6.82667 10.5202L7.04667 10.7135C7.56667 11.1602 8.40667 11.1602 8.92667 10.7135L11.7 8.33354C12.22 7.88687 13.06 7.88687 13.58 8.33354L14.6667 9.26687" stroke="#7F7ED9" stroke-linecap="round" stroke-linejoin="round"/>
</svg>
