<svg width="175" height="132" viewBox="0 0 175 132" fill="none" xmlns="http://www.w3.org/2000/svg">
<rect x="1" width="174" height="131" fill="#F9FAFB"/>
<path d="M95.6562 41.9199C98.3468 41.92 100.528 43.9727 100.528 46.5049C100.528 49.037 98.3468 51.0897 95.6562 51.0898H140.2C142.891 51.0899 145.072 53.1427 145.072 55.6748C145.072 58.207 142.891 60.2597 140.2 60.2598H155.512C158.202 60.2598 160.384 62.3126 160.384 64.8447C160.384 67.377 158.202 69.4297 155.512 69.4297H142.288C139.597 69.4297 137.416 71.4825 137.416 74.0146C137.416 76.5469 139.597 78.5996 142.288 78.5996H146.464C149.154 78.5996 151.336 80.6525 151.336 83.1846C151.336 85.7168 149.155 87.7695 146.464 87.7695H110.272C109.914 87.7695 109.565 87.7331 109.228 87.6641C108.892 87.7332 108.542 87.7695 108.184 87.7695H44.8476C42.157 87.7693 39.9755 85.7167 39.9755 83.1846C39.9757 80.6526 42.1572 78.5998 44.8476 78.5996H17.704C15.0133 78.5996 12.832 76.5469 12.832 74.0146C12.8321 71.4825 15.0134 69.4297 17.704 69.4297H45.5439C48.2346 69.4297 50.416 67.377 50.416 64.8447C50.4158 62.3126 48.2345 60.2598 45.5439 60.2598H28.1435C25.453 60.2595 23.2724 58.2069 23.2724 55.6748C23.2725 53.1428 25.453 51.0901 28.1435 51.0898H55.9843C53.2936 51.0898 51.1122 49.0371 51.1122 46.5049C51.1123 43.9727 53.2936 41.9199 55.9843 41.9199H95.6562ZM158.296 78.5996C160.986 78.5996 163.168 80.6525 163.168 83.1846C163.168 85.7168 160.987 87.7695 158.296 87.7695C155.605 87.7695 153.424 85.7167 153.424 83.1846C153.424 80.6526 155.605 78.5997 158.296 78.5996Z" fill="#EFF0FF"/>
<g clip-path="url(#clip0_53_1897)">
<path d="M121.635 41.9288C119.094 41.9288 116.566 42.2856 114.089 42.9788C111.037 30.322 99.7874 21.3484 86.5597 21.3484C73.9335 21.3484 62.7242 29.921 59.2992 41.9526C58.9866 41.9458 58.6706 41.9288 58.358 41.9288C42.7281 41.9288 30 54.6638 30 70.2835C30 85.9269 42.7281 98.6483 58.358 98.6483H121.635C137.272 98.6483 150 85.9269 150 70.2835C149.997 54.6638 137.268 41.9288 121.635 41.9288ZM121.635 94.7782H58.358C44.8586 94.7782 33.8633 83.7897 33.8633 70.2835C33.8633 56.784 44.8586 45.8091 58.358 45.8091C59.1157 45.8091 59.8632 45.8499 60.6074 45.9213L62.3063 46.0742L62.6698 44.416C65.1264 33.2882 75.1737 25.2253 86.5597 25.2253C98.6321 25.2253 108.785 33.8727 110.701 45.7921L111.071 48.1026L113.273 47.3008C116.002 46.312 118.822 45.8125 121.628 45.8125C135.135 45.8125 146.116 56.7874 146.116 70.2869C146.123 83.7897 135.138 94.7782 121.635 94.7782Z" fill="#7F7ED9"/>
<path d="M106.104 52.2005C105.367 51.4631 104.153 51.4631 103.43 52.2005L81.0791 74.5444L69.5639 62.9715C68.8266 62.2206 67.6272 62.2206 66.8831 62.9715L62.8465 66.9877C62.1024 67.7182 62.1024 68.938 62.8465 69.6821L79.7233 86.6507C80.4539 87.388 81.6533 87.388 82.4042 86.6507L110.137 58.9179C110.895 58.1806 110.895 56.9676 110.137 56.2302L106.104 52.2005Z" fill="#7F7ED9"/>
</g>
<defs>
<clipPath id="clip0_53_1897">
<rect width="120" height="120" fill="white" transform="translate(30)"/>
</clipPath>
</defs>
</svg>
