<svg width="85" height="85" viewBox="0 0 85 85" fill="none" xmlns="http://www.w3.org/2000/svg">
<g clip-path="url(#clip0_102_2437)">
<path d="M74.541 8.71582H24.9023C22.1517 8.71582 19.9219 10.9457 19.9219 13.6963V78.7744C19.9219 81.525 22.1517 83.7549 24.9023 83.7549H74.541C77.2917 83.7549 79.5215 81.525 79.5215 78.7744V13.6963C79.5215 10.9457 77.2917 8.71582 74.541 8.71582Z" fill="#E7E7F2"/>
<path d="M74.541 8.71582H67.0703C68.3912 8.71582 69.658 9.24055 70.592 10.1746C71.5261 11.1086 72.0508 12.3754 72.0508 13.6963V78.7744C72.0508 80.0953 71.5261 81.3621 70.592 82.2961C69.658 83.2302 68.3912 83.7549 67.0703 83.7549H74.541C75.8619 83.7549 77.1287 83.2302 78.0627 82.2961C78.9968 81.3621 79.5215 80.0953 79.5215 78.7744V13.6963C79.5215 12.3754 78.9968 11.1086 78.0627 10.1746C77.1287 9.24055 75.8619 8.71582 74.541 8.71582Z" fill="#DCDCE5"/>
<path d="M27.3926 16.1865H72.0508V53.54H27.3926V16.1865Z" fill="#A8D9F5"/>
<path d="M48.4857 53.54L60.3399 41.2844L72.0508 53.54H48.4857Z" fill="#469ED6"/>
<path d="M27.3926 53.54L40.3777 38.0647L53.3627 53.54H27.3926Z" fill="#7DC7A2"/>
<path d="M19.9219 30.1318C27.8987 30.1318 34.3652 23.6653 34.3652 15.6885C34.3652 7.71163 27.8987 1.24512 19.9219 1.24512C11.945 1.24512 5.47852 7.71163 5.47852 15.6885C5.47852 23.6653 11.945 30.1318 19.9219 30.1318Z" fill="#ED4769"/>
<path d="M54.8682 33.1201C57.4813 33.1201 59.5996 31.0018 59.5996 28.3887C59.5996 25.7756 57.4813 23.6572 54.8682 23.6572C52.2551 23.6572 50.1367 25.7756 50.1367 28.3887C50.1367 31.0018 52.2551 33.1201 54.8682 33.1201Z" fill="#FEE27D"/>
<path d="M27.3926 49.8046C27.6397 49.8054 27.8814 49.7329 28.0873 49.5963C28.2932 49.4598 28.454 49.2652 28.5493 49.0372C28.6446 48.8093 28.6702 48.5582 28.6228 48.3157C28.5754 48.0732 28.4571 47.8502 28.283 47.6749C28.1089 47.4996 27.8867 47.3799 27.6445 47.3309C27.4023 47.2819 27.1511 47.3058 26.9225 47.3996C26.6939 47.4933 26.4983 47.6528 26.3603 47.8578C26.2224 48.0628 26.1483 48.3041 26.1475 48.5512V48.5678C26.1476 48.7308 26.18 48.8923 26.2427 49.0428C26.3054 49.1933 26.3973 49.33 26.513 49.4449C26.6287 49.5598 26.766 49.6508 26.9169 49.7125C27.0678 49.7742 27.2295 49.8055 27.3926 49.8046ZM27.3926 39.8436C27.6397 39.8445 27.8814 39.772 28.0873 39.6354C28.2932 39.4988 28.454 39.3042 28.5493 39.0763C28.6446 38.8483 28.6702 38.5972 28.6228 38.3547C28.5754 38.1122 28.4571 37.8892 28.283 37.7139C28.1089 37.5387 27.8867 37.4189 27.6445 37.3699C27.4023 37.3209 27.1511 37.3448 26.9225 37.4386C26.6939 37.5324 26.4983 37.6919 26.3603 37.8969C26.2224 38.1018 26.1483 38.3431 26.1475 38.5902V38.6068C26.1476 38.7699 26.18 38.9313 26.2427 39.0819C26.3054 39.2324 26.3973 39.3691 26.513 39.484C26.6287 39.5989 26.766 39.6898 26.9169 39.7516C27.0678 39.8133 27.2295 39.8446 27.3926 39.8436ZM27.3926 44.8241C27.6397 44.8249 27.8814 44.7525 28.0873 44.6159C28.2932 44.4793 28.454 44.2847 28.5493 44.0567C28.6446 43.8288 28.6702 43.5777 28.6228 43.3352C28.5754 43.0927 28.4571 42.8697 28.283 42.6944C28.1089 42.5191 27.8867 42.3994 27.6445 42.3504C27.4023 42.3014 27.1511 42.3253 26.9225 42.4191C26.6939 42.5129 26.4983 42.6724 26.3603 42.8773C26.2224 43.0823 26.1483 43.3236 26.1475 43.5707V43.5873C26.1476 43.7504 26.18 43.9118 26.2427 44.0623C26.3054 44.2129 26.3973 44.3495 26.513 44.4645C26.6287 44.5794 26.766 44.6703 26.9169 44.732C27.0678 44.7938 27.2295 44.825 27.3926 44.8241ZM72.0508 74.7069H27.3926C27.0624 74.7069 26.7457 74.8381 26.5121 75.0716C26.2786 75.3051 26.1475 75.6218 26.1475 75.952C26.1475 76.2823 26.2786 76.599 26.5121 76.8325C26.7457 77.066 27.0624 77.1971 27.3926 77.1971H72.0508C72.381 77.1971 72.6977 77.066 72.9312 76.8325C73.1647 76.599 73.2959 76.2823 73.2959 75.952C73.2959 75.6218 73.1647 75.3051 72.9312 75.0716C72.6977 74.8381 72.381 74.7069 72.0508 74.7069ZM27.4009 62.2557C27.7311 62.2557 28.0478 62.1246 28.2813 61.8911C28.5148 61.6576 28.646 61.3409 28.646 61.0106C28.646 60.6804 28.5148 60.3637 28.2813 60.1302C28.0478 59.8967 27.7311 59.7655 27.4009 59.7655H27.3926C27.2291 59.7661 27.0673 59.7988 26.9164 59.8619C26.7656 59.925 26.6286 60.0171 26.5134 60.1331C26.3981 60.2491 26.3069 60.3867 26.2448 60.538C26.1827 60.6893 26.1511 60.8513 26.1516 61.0148C26.1522 61.1783 26.1849 61.3401 26.248 61.4909C26.3111 61.6418 26.4032 61.7788 26.5192 61.894C26.6352 62.0092 26.7728 62.1005 26.9241 62.1626C27.0754 62.2246 27.2374 62.2563 27.4009 62.2557ZM32.3463 52.2948C32.0161 52.2948 31.6994 52.426 31.4659 52.6595C31.2324 52.893 31.1012 53.2097 31.1012 53.5399C31.1012 53.8701 31.2324 54.1869 31.4659 54.4204C31.6994 54.6539 32.0161 54.785 32.3463 54.785H32.3629C32.526 54.7849 32.6874 54.7525 32.838 54.6898C32.9885 54.6271 33.1252 54.5352 33.2401 54.4195C33.355 54.3038 33.4459 54.1665 33.5077 54.0156C33.5694 53.8647 33.6007 53.703 33.5997 53.5399C33.5979 53.2088 33.465 52.8919 33.2301 52.6586C32.9952 52.4253 32.6774 52.2944 32.3463 52.2948ZM72.0508 67.2362H27.3926C27.0624 67.2362 26.7457 67.3674 26.5121 67.6009C26.2786 67.8344 26.1475 68.1511 26.1475 68.4813C26.1475 68.8116 26.2786 69.1283 26.5121 69.3618C26.7457 69.5953 27.0624 69.7264 27.3926 69.7264H72.0508C72.381 69.7264 72.6977 69.5953 72.9312 69.3618C73.1647 69.1283 73.2959 68.8116 73.2959 68.4813C73.2959 68.1511 73.1647 67.8344 72.9312 67.6009C72.6977 67.3674 72.381 67.2362 72.0508 67.2362ZM19.9219 6.34998C19.5917 6.34998 19.275 6.48116 19.0414 6.71467C18.8079 6.94817 18.6768 7.26487 18.6768 7.5951V19.0502C18.6768 19.3804 18.8079 19.6971 19.0414 19.9306C19.275 20.1641 19.5917 20.2953 19.9219 20.2953C20.2521 20.2953 20.5688 20.1641 20.8023 19.9306C21.0358 19.6971 21.167 19.3804 21.167 19.0502V7.5951C21.167 7.26487 21.0358 6.94817 20.8023 6.71467C20.5688 6.48116 20.2521 6.34998 19.9219 6.34998ZM72.0508 39.8519C72.381 39.8519 72.6977 39.7208 72.9312 39.4872C73.1647 39.2537 73.2959 38.937 73.2959 38.6068V38.5902C73.2957 38.4271 73.2634 38.2657 73.2007 38.1152C73.1379 37.9646 73.0461 37.828 72.9304 37.7131C72.8147 37.5981 72.6774 37.5072 72.5265 37.4455C72.3755 37.3837 72.2139 37.3525 72.0508 37.3534C71.7195 37.3534 71.4017 37.485 71.1674 37.7193C70.9331 37.9536 70.8015 38.2713 70.8015 38.6027C70.8015 38.934 70.9331 39.2517 71.1674 39.486C71.4017 39.7203 71.7195 39.8519 72.0508 39.8519ZM32.3465 59.7655C32.1834 59.7657 32.022 59.798 31.8714 59.8608C31.7209 59.9235 31.5842 60.0153 31.4693 60.131C31.3544 60.2467 31.2635 60.384 31.2017 60.5349C31.14 60.6859 31.1087 60.8475 31.1097 61.0106C31.1088 61.2577 31.1813 61.4995 31.3179 61.7054C31.4545 61.9113 31.6491 62.072 31.877 62.1674C32.105 62.2627 32.3561 62.2882 32.5986 62.2408C32.8411 62.1934 33.0641 62.0752 33.2394 61.9011C33.4146 61.7269 33.5344 61.5047 33.5834 61.2626C33.6324 61.0204 33.6085 60.7691 33.5147 60.5405C33.4209 60.3119 33.2614 60.1163 33.0564 59.9784C32.8515 59.8404 32.6102 59.7663 32.3631 59.7655H32.3465ZM54.8682 34.3651C56.0502 34.3651 57.2057 34.0146 58.1886 33.3579C59.1714 32.7012 59.9374 31.7678 60.3898 30.6757C60.8421 29.5836 60.9605 28.3819 60.7299 27.2226C60.4993 26.0632 59.9301 24.9983 59.0942 24.1625C58.2584 23.3267 57.1935 22.7574 56.0341 22.5268C54.8748 22.2962 53.6731 22.4146 52.581 22.8669C51.489 23.3193 50.5555 24.0853 49.8988 25.0682C49.2421 26.051 48.8916 27.2065 48.8916 28.3886C48.8934 29.9731 49.5236 31.4922 50.644 32.6127C51.7645 33.7331 53.2836 34.3634 54.8682 34.3651ZM54.8682 24.9022C55.5577 24.9022 56.2317 25.1067 56.8051 25.4898C57.3784 25.8729 57.8252 26.4174 58.0891 27.0544C58.353 27.6914 58.422 28.3924 58.2875 29.0687C58.153 29.745 57.8209 30.3662 57.3334 30.8538C56.8458 31.3413 56.2246 31.6734 55.5483 31.8079C54.872 31.9424 54.171 31.8734 53.534 31.6095C52.897 31.3456 52.3525 30.8988 51.9694 30.3255C51.5863 29.7521 51.3818 29.0781 51.3818 28.3886C51.3829 27.4642 51.7505 26.5781 52.4041 25.9245C53.0577 25.2709 53.9439 24.9033 54.8682 24.9022ZM19.9219 22.5365C19.6756 22.5365 19.4349 22.6095 19.2301 22.7463C19.0254 22.8832 18.8658 23.0776 18.7715 23.3051C18.6773 23.5326 18.6526 23.783 18.7007 24.0245C18.7487 24.2661 18.8673 24.4879 19.0414 24.6621C19.2156 24.8362 19.4374 24.9548 19.679 25.0028C19.9205 25.0509 20.1708 25.0262 20.3984 24.932C20.6259 24.8377 20.8203 24.6781 20.9572 24.4734C21.094 24.2686 21.167 24.0279 21.167 23.7816C21.167 23.4514 21.0358 23.1347 20.8023 22.9012C20.5688 22.6677 20.2521 22.5365 19.9219 22.5365ZM72.0508 49.8129C72.381 49.8129 72.6977 49.6817 72.9312 49.4482C73.1647 49.2147 73.2959 48.898 73.2959 48.5678V48.5512C73.2957 48.3881 73.2634 48.2266 73.2007 48.0761C73.1379 47.9256 73.0461 47.7889 72.9304 47.674C72.8147 47.5591 72.6774 47.4681 72.5265 47.4064C72.3755 47.3447 72.2139 47.3134 72.0508 47.3143C71.7195 47.3143 71.4017 47.446 71.1674 47.6802C70.9331 47.9145 70.8015 48.2323 70.8015 48.5636C70.8015 48.8949 70.9331 49.2127 71.1674 49.447C71.4017 49.6813 71.7195 49.8129 72.0508 49.8129ZM72.0508 44.8324C72.381 44.8324 72.6977 44.7012 72.9312 44.4677C73.1647 44.2342 73.2959 43.9175 73.2959 43.5873V43.5707C73.2957 43.4076 73.2634 43.2462 73.2007 43.0956C73.1379 42.9451 73.0461 42.8084 72.9304 42.6935C72.8147 42.5786 72.6774 42.4877 72.5265 42.4259C72.3755 42.3642 72.2139 42.3329 72.0508 42.3339C71.7195 42.3339 71.4017 42.4655 71.1674 42.6998C70.9331 42.9341 70.8015 43.2518 70.8015 43.5831C70.8015 43.9145 70.9331 44.2322 71.1674 44.4665C71.4017 44.7008 71.7195 44.8324 72.0508 44.8324ZM62.1184 52.2948C61.7882 52.2948 61.4715 52.426 61.238 52.6595C61.0045 52.893 60.8733 53.2097 60.8733 53.5399C60.8733 53.8701 61.0045 54.1869 61.238 54.4204C61.4715 54.6539 61.7882 54.785 62.1184 54.785H62.135C62.2981 54.7849 62.4595 54.7525 62.6101 54.6898C62.7606 54.6271 62.8972 54.5352 63.0122 54.4195C63.1271 54.3038 63.218 54.1665 63.2797 54.0156C63.3415 53.8647 63.3728 53.703 63.3718 53.5399C63.37 53.2088 63.2371 52.8919 63.0022 52.6586C62.7673 52.4253 62.4495 52.2944 62.1184 52.2948ZM67.0806 59.7655C66.9175 59.7657 66.7561 59.798 66.6056 59.8608C66.455 59.9235 66.3184 60.0153 66.2034 60.131C66.0885 60.2467 65.9976 60.384 65.9359 60.5349C65.8741 60.6859 65.8428 60.8475 65.8438 61.0106C65.843 61.2577 65.9154 61.4995 66.052 61.7054C66.1886 61.9113 66.3832 62.072 66.6111 62.1674C66.8391 62.2627 67.0902 62.2882 67.3327 62.2408C67.5752 62.1934 67.7982 62.0752 67.9735 61.9011C68.1488 61.7269 68.2685 61.5047 68.3175 61.2626C68.3665 61.0204 68.3426 60.7691 68.2488 60.5405C68.155 60.3119 67.9955 60.1163 67.7906 59.9784C67.5856 59.8404 67.3443 59.7663 67.0972 59.7655H67.0806ZM67.0804 52.2948C66.7502 52.2948 66.4335 52.426 66.2 52.6595C65.9665 52.893 65.8353 53.2097 65.8353 53.5399C65.8353 53.8701 65.9665 54.1869 66.2 54.4204C66.4335 54.6539 66.7502 54.785 67.0804 54.785H67.097C67.2601 54.7849 67.4216 54.7525 67.5721 54.6898C67.7226 54.6271 67.8593 54.5352 67.9742 54.4195C68.0891 54.3038 68.1801 54.1665 68.2418 54.0156C68.3035 53.8647 68.3348 53.703 68.3339 53.5399C68.332 53.2088 68.1991 52.8919 67.9642 52.6586C67.7293 52.4253 67.4115 52.2944 67.0804 52.2948ZM62.1186 59.7655C61.9555 59.7657 61.794 59.798 61.6435 59.8608C61.493 59.9235 61.3563 60.0153 61.2414 60.131C61.1265 60.2467 61.0355 60.384 60.9738 60.5349C60.9121 60.6859 60.8808 60.8475 60.8817 61.0106C60.8809 61.2577 60.9534 61.4995 61.09 61.7054C61.2266 61.9113 61.4212 62.072 61.6491 62.1674C61.8771 62.2627 62.1282 62.2882 62.3707 62.2408C62.6132 62.1934 62.8361 62.0752 63.0114 61.9011C63.1867 61.7269 63.3064 61.5047 63.3555 61.2626C63.4045 61.0204 63.3806 60.7691 63.2868 60.5405C63.193 60.3119 63.0335 60.1163 62.8285 59.9784C62.6235 59.8404 62.3822 59.7663 62.1352 59.7655H62.1186ZM74.541 7.47075H33.2805C31.875 5.18622 29.9072 3.30024 27.5651 1.993C25.2229 0.685755 22.5847 0.000918719 19.9024 0.00391605C17.2202 0.00691337 14.5835 0.697644 12.2443 2.01012C9.90509 3.32259 7.9415 5.21297 6.54112 7.50063C5.14074 9.7883 4.35036 12.3968 4.24549 15.0771C4.14061 17.7573 4.72475 20.4196 5.94208 22.8097C7.15942 25.1998 8.9693 27.2378 11.1988 28.7291C13.4283 30.2203 16.0029 31.115 18.6768 31.3275V78.7745C18.6786 80.425 19.3351 82.0075 20.5022 83.1746C21.6694 84.3417 23.2518 84.9982 24.9023 85H74.541C76.1916 84.9982 77.774 84.3417 78.9411 83.1746C80.1083 82.0075 80.7648 80.425 80.7666 78.7745V13.6963C80.7648 12.0458 80.1083 10.4633 78.9411 9.29622C77.774 8.1291 76.1916 7.4726 74.541 7.47075ZM19.9219 28.8868C17.3115 28.8868 14.7598 28.1127 12.5893 26.6625C10.4189 25.2122 8.72724 23.1509 7.72829 20.7393C6.72935 18.3276 6.46798 15.6739 6.97724 13.1137C7.48649 10.5535 8.74351 8.20177 10.5893 6.35596C12.4351 4.51015 14.7868 3.25314 17.347 2.74389C19.9072 2.23463 22.561 2.496 24.9726 3.49494C27.3843 4.49389 29.4456 6.18554 30.8958 8.35598C32.3461 10.5264 33.1201 13.0782 33.1201 15.6885C33.1161 19.1877 31.7243 22.5424 29.25 25.0166C26.7757 27.4909 23.421 28.8826 19.9219 28.8866V28.8868ZM78.2764 78.7745C78.2752 79.7648 77.8813 80.7142 77.181 81.4145C76.4808 82.1148 75.5313 82.5087 74.541 82.5098H24.9023C23.912 82.5087 22.9626 82.1148 22.2623 81.4145C21.562 80.7142 21.1681 79.7648 21.167 78.7745V31.3275C22.8843 31.1926 24.5674 30.7735 26.1475 30.0874V33.6263C26.1485 33.9566 26.2808 34.2728 26.515 34.5056C26.7493 34.7383 27.0664 34.8685 27.3966 34.8674C27.7269 34.8663 28.0431 34.7341 28.2759 34.4998C28.5086 34.2656 28.6388 33.9484 28.6377 33.6182V28.7266C30.5361 27.4571 32.1347 25.7888 33.3221 23.838C34.5096 21.8873 35.2573 19.701 35.5131 17.4317H70.8057V33.6182L70.8058 33.6224L70.8057 33.6263C70.8057 33.9566 70.9368 34.2733 71.1703 34.5068C71.4039 34.7403 71.7206 34.8715 72.0508 34.8715C72.381 34.8715 72.6977 34.7403 72.9312 34.5068C73.1647 34.2733 73.2959 33.9566 73.2959 33.6263V16.1866C73.2959 15.8563 73.1647 15.5396 72.9312 15.3061C72.6977 15.0726 72.381 14.9415 72.0508 14.9415H35.5921C35.5129 13.2342 35.1534 11.5516 34.5279 9.96099H74.541C75.5313 9.96213 76.4808 10.356 77.181 11.0563C77.8813 11.7566 78.2752 12.706 78.2764 13.6963V78.7745ZM57.1565 59.7657C56.9934 59.7658 56.832 59.7982 56.6815 59.8609C56.5309 59.9237 56.3943 60.0155 56.2794 60.1312C56.1644 60.2469 56.0735 60.3842 56.0118 60.5351C55.9501 60.6861 55.9188 60.8477 55.9197 61.0108C55.9189 61.2578 55.9914 61.4996 56.128 61.7054C56.2646 61.9113 56.4591 62.072 56.6871 62.1672C56.915 62.2625 57.1661 62.2881 57.4085 62.2407C57.651 62.1932 57.8739 62.075 58.0492 61.9009C58.2244 61.7268 58.3441 61.5046 58.3931 61.2625C58.4421 61.0203 58.4182 60.7691 58.3244 60.5406C58.2306 60.312 58.0712 60.1164 57.8662 59.9785C57.6612 59.8405 57.42 59.7665 57.173 59.7657H57.1565ZM72.0508 59.7655H72.0425C71.7115 59.7666 71.3945 59.899 71.1611 60.1336C70.9276 60.3682 70.7968 60.6859 70.7974 61.0168C70.7979 61.3478 70.9298 61.665 71.164 61.8989C71.3982 62.1327 71.7157 62.264 72.0466 62.264C72.3776 62.264 72.695 62.1327 72.9293 61.8989C73.1635 61.665 73.2953 61.3478 73.2959 61.0168C73.2964 60.6859 73.1656 60.3682 72.9322 60.1336C72.6988 59.899 72.3817 59.7666 72.0508 59.7655ZM61.2204 40.4036C60.9868 40.1702 60.6701 40.039 60.3399 40.039C60.0096 40.039 59.6929 40.1702 59.4593 40.4036L51.0349 48.8284L41.3316 37.2642C41.2147 37.125 41.0688 37.013 40.904 36.9362C40.7392 36.8594 40.5596 36.8195 40.3778 36.8195C40.196 36.8195 40.0164 36.8594 39.8517 36.9362C39.6869 37.013 39.5409 37.125 39.4241 37.2642L26.439 52.7396C26.2267 52.9925 26.1236 53.3194 26.1523 53.6484C26.1811 53.9774 26.3393 54.2815 26.5923 54.4938C26.8453 54.7061 27.1722 54.8092 27.5012 54.7804C27.8301 54.7517 28.1342 54.5934 28.3465 54.3405L40.3777 40.0017L49.9885 51.4556L49.9886 51.4558L52.4091 54.3405C52.5143 54.4657 52.643 54.569 52.7881 54.6445C52.9331 54.72 53.0916 54.7662 53.2545 54.7804C53.4174 54.7947 53.5815 54.7767 53.7374 54.7275C53.8934 54.6783 54.0381 54.5989 54.1633 54.4938C54.2886 54.3887 54.3919 54.2599 54.4674 54.1148C54.5429 53.9698 54.5891 53.8113 54.6033 53.6484C54.6175 53.4855 54.5996 53.3214 54.5504 53.1655C54.5012 53.0095 54.4218 52.8648 54.3167 52.7396L52.6417 50.7436L60.34 43.0452L71.1704 53.8758C71.286 53.9914 71.4233 54.0831 71.5744 54.1457C71.7255 54.2083 71.8874 54.2405 72.0509 54.2405C72.2145 54.2405 72.3764 54.2083 72.5275 54.1457C72.6786 54.0831 72.8159 53.9914 72.9315 53.8758C73.0471 53.7601 73.1389 53.6229 73.2014 53.4718C73.264 53.3207 73.2962 53.1588 73.2962 52.9952C73.2962 52.8317 73.264 52.6698 73.2014 52.5187C73.1389 52.3676 73.0471 52.2303 72.9315 52.1147L61.2204 40.4036ZM37.3084 52.2948C36.9781 52.2948 36.6614 52.426 36.4279 52.6595C36.1944 52.893 36.0632 53.2097 36.0632 53.5399C36.0632 53.8701 36.1944 54.1869 36.4279 54.4204C36.6614 54.6539 36.9781 54.785 37.3084 54.785H37.325C37.488 54.7849 37.6495 54.7525 37.8 54.6898C37.9505 54.6271 38.0872 54.5352 38.2021 54.4195C38.3171 54.3038 38.408 54.1665 38.4697 54.0156C38.5314 53.8647 38.5627 53.703 38.5618 53.5399C38.5599 53.2088 38.427 52.8919 38.1921 52.6586C37.9572 52.4253 37.6395 52.2944 37.3084 52.2948ZM42.2706 59.7655C42.1075 59.7656 41.946 59.798 41.7955 59.8607C41.6449 59.9234 41.5082 60.0153 41.3933 60.131C41.2783 60.2467 41.1874 60.384 41.1257 60.5349C41.0639 60.6859 41.0326 60.8475 41.0336 61.0106C41.0328 61.2577 41.1052 61.4995 41.2418 61.7054C41.3784 61.9113 41.573 62.072 41.8009 62.1674C42.0289 62.2627 42.28 62.2882 42.5225 62.2408C42.765 62.1934 42.988 62.0752 43.1633 61.9011C43.3386 61.7269 43.4583 61.5047 43.5073 61.2626C43.5563 61.0204 43.5324 60.7691 43.4386 60.5405C43.3448 60.3119 43.1853 60.1163 42.9804 59.9784C42.7754 59.8404 42.5341 59.7663 42.287 59.7655H42.2706ZM42.2706 52.2948C41.9403 52.2948 41.6236 52.426 41.3901 52.6595C41.1566 52.893 41.0254 53.2097 41.0254 53.5399C41.0254 53.8701 41.1566 54.1869 41.3901 54.4204C41.6236 54.6539 41.9403 54.785 42.2706 54.785H42.2868C42.4499 54.7849 42.6114 54.7525 42.7619 54.6898C42.9124 54.6271 43.0491 54.5352 43.164 54.4195C43.2789 54.3038 43.3699 54.1665 43.4316 54.0156C43.4933 53.8647 43.5246 53.703 43.5237 53.5399C43.5219 53.2088 43.389 52.892 43.1541 52.6586C42.9192 52.4253 42.6017 52.2944 42.2706 52.2948ZM37.3084 59.7655C37.1453 59.7657 36.9838 59.798 36.8333 59.8608C36.6828 59.9235 36.5461 60.0153 36.4312 60.131C36.3163 60.2467 36.2253 60.384 36.1636 60.5349C36.1019 60.6859 36.0706 60.8475 36.0715 61.0106C36.0707 61.2577 36.1432 61.4995 36.2798 61.7054C36.4164 61.9113 36.6109 62.072 36.8389 62.1674C37.0669 62.2627 37.318 62.2882 37.5605 62.2408C37.8029 62.1934 38.0259 62.0752 38.2012 61.9011C38.3765 61.7269 38.4962 61.5047 38.5452 61.2626C38.5943 61.0204 38.5704 60.7691 38.4766 60.5405C38.3828 60.3119 38.2233 60.1163 38.0183 59.9784C37.8133 59.8404 37.572 59.7663 37.325 59.7655H37.3084ZM57.1564 52.2948C56.8261 52.2948 56.5094 52.426 56.2759 52.6595C56.0424 52.893 55.9112 53.2097 55.9112 53.5399C55.9112 53.8701 56.0424 54.1869 56.2759 54.4204C56.5094 54.6539 56.8261 54.785 57.1564 54.785H57.173C57.336 54.7849 57.4975 54.7525 57.648 54.6898C57.7985 54.6271 57.9352 54.5352 58.0501 54.4195C58.1651 54.3038 58.256 54.1665 58.3177 54.0156C58.3794 53.8647 58.4107 53.703 58.4098 53.5399C58.4079 53.2088 58.275 52.8919 58.0401 52.6586C57.8052 52.4253 57.4875 52.2944 57.1564 52.2948ZM53.456 61.0106C53.456 60.6804 53.3249 60.3637 53.0914 60.1302C52.8578 59.8967 52.5411 59.7655 52.2109 59.7655H52.1946C52.0316 59.7657 51.8701 59.798 51.7196 59.8608C51.5691 59.9235 51.4324 60.0153 51.3175 60.131C51.2026 60.2467 51.1116 60.384 51.0499 60.5349C50.9882 60.6859 50.9569 60.8475 50.9578 61.0106C50.9578 61.3419 51.0894 61.6596 51.3237 61.8939C51.5579 62.1281 51.8757 62.2597 52.2069 62.2597C52.5382 62.2597 52.8559 62.1281 53.0902 61.8939C53.3244 61.6596 53.456 61.3419 53.456 61.0106ZM47.2324 52.2948C46.9022 52.2948 46.5855 52.426 46.352 52.6595C46.1185 52.893 45.9873 53.2097 45.9873 53.5399C45.9873 53.8701 46.1185 54.1869 46.352 54.4204C46.5855 54.6539 46.9022 54.785 47.2324 54.785H47.2487C47.4118 54.7849 47.5732 54.7525 47.7238 54.6898C47.8743 54.6271 48.011 54.5352 48.1259 54.4195C48.2408 54.3038 48.3317 54.1665 48.3935 54.0156C48.4552 53.8647 48.4865 53.703 48.4855 53.5399C48.4837 53.2089 48.3509 52.892 48.116 52.6587C47.8812 52.4253 47.5635 52.2945 47.2324 52.2948ZM47.2324 59.7655C47.0694 59.7657 46.9079 59.798 46.7574 59.8608C46.6069 59.9235 46.4702 60.0153 46.3553 60.131C46.2403 60.2467 46.1494 60.384 46.0877 60.5349C46.026 60.6859 45.9947 60.8475 45.9956 61.0106C45.9948 61.2577 46.0673 61.4995 46.2039 61.7054C46.3404 61.9113 46.535 62.072 46.763 62.1674C46.9909 62.2627 47.242 62.2882 47.4845 62.2408C47.727 62.1934 47.95 62.0752 48.1253 61.9011C48.3006 61.7269 48.4203 61.5047 48.4693 61.2626C48.5183 61.0204 48.4944 60.7691 48.4006 60.5405C48.3069 60.3119 48.1474 60.1163 47.9424 59.9784C47.7374 59.8404 47.4961 59.7663 47.249 59.7655H47.2324Z" fill="black"/>
</g>
<defs>
<clipPath id="clip0_102_2437">
<rect width="85" height="85" fill="white"/>
</clipPath>
</defs>
</svg>
