<svg width="24" height="24" viewBox="0 0 24 24" fill="none" xmlns="http://www.w3.org/2000/svg">
<path d="M19.32 11.0625V12.9375H11.0625C10.8139 12.9375 10.5754 12.8387 10.3996 12.6629C10.2238 12.4871 10.125 12.2486 10.125 12C10.125 11.7514 10.2238 11.5129 10.3996 11.3371C10.5754 11.1613 10.8139 11.0625 11.0625 11.0625H19.32Z" fill="#7D77EA"/>
<path d="M15.9609 14.8125C15.9607 14.6894 15.9849 14.5674 16.032 14.4536C16.0792 14.3399 16.1484 14.2366 16.2356 14.1497L18.3853 12L16.2356 9.85031C16.0649 9.6735 15.9704 9.43668 15.9725 9.19087C15.9746 8.94506 16.0732 8.70993 16.247 8.53611C16.4209 8.36229 16.656 8.26369 16.9018 8.26156C17.1476 8.25942 17.3844 8.35391 17.5613 8.52469L20.3738 11.3372C20.5495 11.513 20.6482 11.7514 20.6482 12C20.6482 12.2486 20.5495 12.487 20.3738 12.6628L17.5613 15.4753C17.4301 15.6064 17.2631 15.6956 17.0813 15.7318C16.8994 15.768 16.711 15.7494 16.5397 15.6784C16.3684 15.6075 16.222 15.4874 16.119 15.3332C16.016 15.1791 15.961 14.9979 15.9609 14.8125ZM12 4.28906V6.16406C12 6.4127 11.9012 6.65116 11.7254 6.82698C11.5496 7.00279 11.3111 7.10156 11.0625 7.10156C10.8139 7.10156 10.5754 7.00279 10.3996 6.82698C10.2238 6.65116 10.125 6.4127 10.125 6.16406V5.22656H5.22656V18.7734H10.125V17.8359C10.125 17.5873 10.2238 17.3488 10.3996 17.173C10.5754 16.9972 10.8139 16.8984 11.0625 16.8984C11.3111 16.8984 11.5496 16.9972 11.7254 17.173C11.9012 17.3488 12 17.5873 12 17.8359V19.7109C12 19.9596 11.9012 20.198 11.7254 20.3739C11.5496 20.5497 11.3111 20.6484 11.0625 20.6484H4.28906C4.04042 20.6484 3.80197 20.5497 3.62615 20.3739C3.45033 20.198 3.35156 19.9596 3.35156 19.7109V4.28906C3.35156 4.04042 3.45033 3.80197 3.62615 3.62615C3.80197 3.45033 4.04042 3.35156 4.28906 3.35156H11.0625C11.3111 3.35156 11.5496 3.45033 11.7254 3.62615C11.9012 3.80197 12 4.04042 12 4.28906Z" fill="#7076E7"/>
</svg>
