<svg width="75" height="75" viewBox="0 0 75 75" fill="none" xmlns="http://www.w3.org/2000/svg">
<g clip-path="url(#clip0_115_1754)">
<path d="M67.6601 39.5729C68.1911 39.0419 68.4841 38.3359 68.4841 37.5839C68.4841 36.8329 68.1911 36.1269 67.6601 35.5949L56.8501 24.7849C56.3191 24.2539 55.6131 23.9609 54.8621 23.9609C54.1101 23.9609 53.4041 24.2529 52.8731 24.7849C52.3421 25.3169 52.0491 26.0219 52.0491 26.7729C52.0491 27.5239 52.3421 28.2309 52.8731 28.7609L60.9871 36.8759C61.3781 37.2669 61.3781 37.8989 60.9871 38.2899L52.8731 46.4049C52.3421 46.9359 52.0491 47.6419 52.0491 48.3929C52.0491 49.1439 52.3421 49.8509 52.8731 50.3809C53.9341 51.4439 55.7861 51.4449 56.8511 50.3809L67.6601 39.5729Z" fill="#37C3F4"/>
<path d="M23.6301 33.791C21.5271 33.791 19.8171 35.501 19.8171 37.604C19.8171 39.707 21.5271 41.416 23.6301 41.416H50.9511C53.0541 41.416 54.7641 39.706 54.7641 37.604C54.7641 35.502 53.0541 33.791 50.9511 33.791H23.6301Z" fill="#37C3F4"/>
<path d="M50.9511 42.416H23.6301C20.9771 42.416 18.8171 40.257 18.8171 37.604C18.8171 34.95 20.9761 32.791 23.6301 32.791H50.9511C53.6041 32.791 55.7641 34.95 55.7641 37.604C55.7641 40.257 53.6041 42.416 50.9511 42.416ZM23.6301 34.791C22.0791 34.791 20.8171 36.053 20.8171 37.604C20.8171 39.155 22.0791 40.416 23.6301 40.416H50.9511C52.5021 40.416 53.7641 39.155 53.7641 37.604C53.7641 36.053 52.5021 34.791 50.9511 34.791H23.6301Z" fill="black"/>
<path d="M66.5231 38.4362L55.7131 49.2462C54.9931 49.9662 54.0351 50.3632 53.0181 50.3632C52.9571 50.3632 52.9001 50.3452 52.8401 50.3422C52.8521 50.3552 52.8601 50.3702 52.8731 50.3822C53.9341 51.4452 55.7861 51.4462 56.8511 50.3822L67.6611 39.5722C68.1921 39.0412 68.4851 38.3352 68.4851 37.5832C68.4851 36.8322 68.1921 36.1262 67.6611 35.5942L67.6231 35.5562C67.6261 35.6172 67.6411 35.6762 67.6411 35.7382C67.6401 36.7592 67.2441 37.7162 66.5231 38.4362Z" fill="white"/>
<path d="M54.8621 53.2069C53.5761 53.2069 52.3671 52.7059 51.4591 51.7969C50.5501 50.8879 50.0491 49.6799 50.0491 48.3939C50.0491 47.1089 50.5501 45.8999 51.4591 44.9909L58.8661 37.5839L51.4591 30.1769C50.5501 29.2679 50.0491 28.0599 50.0491 26.7739C50.0491 25.4889 50.5501 24.2799 51.4591 23.3709C52.3671 22.4619 53.5761 21.9619 54.8621 21.9619C56.1481 21.9619 57.3561 22.4619 58.2641 23.3719L69.0741 34.1819C69.9831 35.0909 70.4841 36.2999 70.4841 37.5849C70.4841 38.8709 69.9831 40.0789 69.0741 40.9879L58.2641 51.7979C57.3561 52.7059 56.1471 53.2069 54.8621 53.2069ZM54.8621 23.9619C54.1101 23.9619 53.4041 24.2539 52.8731 24.7859C52.3421 25.3179 52.0491 26.0229 52.0491 26.7739C52.0491 27.5249 52.3421 28.2319 52.8731 28.7619L60.9871 36.8769C61.3781 37.2679 61.3781 37.8999 60.9871 38.2909L52.8731 46.4059C52.3421 46.9369 52.0491 47.6429 52.0491 48.3939C52.0491 49.1449 52.3421 49.8519 52.8731 50.3819C53.9341 51.4449 55.7861 51.4459 56.8511 50.3819L67.6611 39.5719C68.1921 39.0409 68.4851 38.3349 68.4851 37.5829C68.4851 36.8319 68.1921 36.1259 67.6611 35.5939L56.8511 24.7839C56.3191 24.2539 55.6131 23.9619 54.8621 23.9619Z" fill="black"/>
<path d="M47.6501 11.481C47.6501 8.68804 45.3781 6.41504 42.5851 6.41504H11.5821C8.78811 6.41504 6.51611 8.68704 6.51611 11.481V63.518C6.51611 66.311 8.78811 68.584 11.5821 68.584H42.5851C45.3781 68.584 47.6501 66.312 47.6501 63.518V50.716C47.6501 49.055 46.2981 47.703 44.6371 47.703C43.8311 47.703 43.0741 48.017 42.5061 48.586C41.9371 49.156 41.6231 49.914 41.6241 50.72L41.6461 61.52C41.6471 62.072 41.2011 62.521 40.6481 62.522L13.5811 62.58C13.5801 62.58 13.5801 62.58 13.5791 62.58C13.3141 62.58 13.0601 62.475 12.8731 62.288C12.6851 62.1 12.5791 61.846 12.5791 61.581L12.5171 13.417C12.5171 13.151 12.6211 12.896 12.8091 12.709C12.9971 12.521 13.2511 12.416 13.5171 12.416H40.5861C41.1381 12.416 41.5851 12.862 41.5861 13.414L41.6091 24.449C41.6111 26.114 42.9651 27.467 44.6301 27.467C46.2951 27.467 47.6501 26.112 47.6501 24.446V11.481Z" fill="#7F7ED9"/>
<path d="M42.5851 70.584H11.5821C7.68611 70.584 4.51611 67.414 4.51611 63.518V11.481C4.51611 7.58504 7.68611 4.41504 11.5821 4.41504H42.5851C46.4811 4.41504 49.6501 7.58504 49.6501 11.481V24.446C49.6501 27.215 47.3981 29.467 44.6301 29.467C41.8641 29.467 39.6111 27.217 39.6091 24.452L39.5881 14.416H14.5181L14.5781 60.578L39.6451 60.525L39.6241 50.724C39.6231 49.382 40.1441 48.121 41.0901 47.174C42.0371 46.226 43.2971 45.704 44.6371 45.704C47.4011 45.704 49.6501 47.953 49.6501 50.717V63.519C49.6501 67.415 46.4801 70.584 42.5851 70.584ZM11.5821 6.41604C8.78811 6.41604 6.51611 8.68804 6.51611 11.482V63.519C6.51611 66.312 8.78811 68.585 11.5821 68.585H42.5851C45.3781 68.585 47.6501 66.313 47.6501 63.519V50.716C47.6501 49.055 46.2981 47.703 44.6371 47.703C43.8311 47.703 43.0741 48.017 42.5061 48.586C41.9371 49.156 41.6231 49.914 41.6241 50.72L41.6461 61.52C41.6471 62.072 41.2011 62.521 40.6481 62.522L13.5811 62.58C13.5801 62.58 13.5801 62.58 13.5791 62.58C13.3141 62.58 13.0601 62.475 12.8731 62.288C12.6851 62.1 12.5791 61.846 12.5791 61.581L12.5171 13.417C12.5171 13.151 12.6211 12.896 12.8091 12.709C12.9971 12.521 13.2511 12.416 13.5171 12.416H40.5861C41.1381 12.416 41.5851 12.862 41.5861 13.414L41.6091 24.449C41.6111 26.114 42.9651 27.467 44.6301 27.467C46.2951 27.467 47.6501 26.112 47.6501 24.446V11.481C47.6501 8.68804 45.3781 6.41504 42.5851 6.41504L11.5821 6.41604Z" fill="black"/>
</g>
<defs>
<clipPath id="clip0_115_1754">
<rect width="75" height="75" fill="white"/>
</clipPath>
</defs>
</svg>
