<svg width="22" height="22" viewBox="0 0 22 22" fill="none" xmlns="http://www.w3.org/2000/svg">
<path d="M16.7793 0.322266H5.2207C5.05142 0.322255 4.88379 0.355591 4.72739 0.420369C4.57099 0.485147 4.42888 0.580098 4.30918 0.699801C4.18947 0.819503 4.09452 0.961612 4.02974 1.11801C3.96497 1.27441 3.93163 1.44204 3.93164 1.61133V19.345L3.28711 21.6777H16.7793C17.1212 21.6777 17.449 21.5419 17.6907 21.3001C17.9325 21.0584 18.0683 20.7305 18.0684 20.3887V1.61133C18.0683 1.26946 17.9325 0.941616 17.6907 0.699881C17.449 0.458147 17.1212 0.322318 16.7793 0.322266Z" fill="#F7F6F5"/>
<path d="M16.7793 0.322266H14.8457C15.1876 0.322318 15.5154 0.458147 15.7571 0.699881C15.9989 0.941616 16.1347 1.26946 16.1348 1.61133V20.3887C16.1347 20.7305 15.9989 21.0584 15.7571 21.3001C15.5154 21.5419 15.1876 21.6777 14.8457 21.6777H16.7793C17.1212 21.6777 17.449 21.5419 17.6907 21.3001C17.9325 21.0584 18.0683 20.7305 18.0684 20.3887V1.61133C18.0683 1.26946 17.9325 0.941616 17.6907 0.699881C17.449 0.458147 17.1212 0.322318 16.7793 0.322266Z" fill="white"/>
<path d="M16.7148 21.6777H3.1582C2.98892 21.6777 2.82129 21.6444 2.66489 21.5796C2.50849 21.5149 2.36638 21.4199 2.24668 21.3002C2.12697 21.1805 2.03202 21.0384 1.96724 20.882C1.90247 20.7256 1.86913 20.558 1.86914 20.3887V18.6699H15.3184L15.3613 18.7559V20.3242C15.3613 20.502 15.3963 20.678 15.4643 20.8422C15.5323 21.0064 15.632 21.1557 15.7577 21.2813C15.8834 21.407 16.0326 21.5067 16.1969 21.5747C16.3611 21.6428 16.5371 21.6778 16.7148 21.6777ZM16.8223 21.6777H16.7148C16.7505 21.6777 16.7853 21.6764 16.8201 21.6739L16.8223 21.6777Z" fill="#599AF2"/>
<path d="M18.0684 6.62158V9.35612L12.2624 15.162C12.0502 15.3742 11.7624 15.4934 11.4624 15.4934C11.1623 15.4934 10.8745 15.3742 10.6623 15.162L10.0951 14.5949L18.0684 6.62158Z" fill="#DADADC"/>
<path d="M21.4891 5.29097L11.4624 15.3177L10.0951 13.9505L20.1219 3.92371C20.1817 3.86384 20.2527 3.81635 20.3309 3.78394C20.4091 3.75154 20.4929 3.73486 20.5775 3.73486C20.6622 3.73486 20.746 3.75154 20.8242 3.78394C20.9024 3.81635 20.9734 3.86384 21.0332 3.92371L21.4891 4.3796C21.6098 4.50052 21.6776 4.66441 21.6776 4.83528C21.6776 5.00615 21.6098 5.17004 21.4891 5.29097Z" fill="#599AF2"/>
<path d="M21.4891 4.37922L21.0332 3.92333C20.9328 3.82304 20.8021 3.7587 20.6615 3.7403C20.5208 3.7219 20.3779 3.75048 20.2552 3.82159C20.3039 3.84953 20.3488 3.88373 20.3887 3.92333L20.8446 4.37922C20.9653 4.50014 21.0331 4.66403 21.0331 4.8349C21.0331 5.00577 20.9653 5.16966 20.8446 5.29059L11.1401 14.9951L11.4623 15.3173L21.4891 5.29059C21.6098 5.16966 21.6776 5.00577 21.6776 4.8349C21.6776 4.66403 21.6098 4.50014 21.4891 4.37922Z" fill="#599AF2"/>
<path d="M11.4623 15.3175L9.41144 16.0011L10.0951 13.9502L11.4623 15.3175Z" fill="#FDD8AE"/>
<path d="M11.1204 14.9756L9.58241 15.4882L9.41144 16.0012L11.4623 15.3175L11.1204 14.9756Z" fill="#FBBF7D"/>
<path d="M21.4891 5.29097L20.5064 6.27367L19.1392 4.90641L20.1219 3.92371C20.1817 3.86384 20.2527 3.81635 20.3309 3.78394C20.4091 3.75154 20.4929 3.73486 20.5775 3.73486C20.6622 3.73486 20.746 3.75154 20.8242 3.78394C20.9024 3.81635 20.9734 3.86384 21.0332 3.92371L21.4891 4.3796C21.6098 4.50052 21.6776 4.66441 21.6776 4.83528C21.6776 5.00615 21.6098 5.17004 21.4891 5.29097Z" fill="#FDDD5A"/>
<path d="M21.4891 4.37922L21.0332 3.92333C20.9328 3.82304 20.8022 3.7587 20.6615 3.7403C20.5208 3.7219 20.378 3.75048 20.2552 3.82159C20.3039 3.84953 20.3488 3.88373 20.3887 3.92333L20.8446 4.37922C20.9653 4.50015 21.0331 4.66403 21.0331 4.83491C21.0331 5.00578 20.9653 5.16966 20.8446 5.29059L20.1841 5.95102L20.5064 6.27329L21.4891 5.29059C21.6098 5.16966 21.6776 5.00577 21.6776 4.8349C21.6776 4.66403 21.6098 4.50015 21.4891 4.37922Z" fill="#FED030"/>
<path d="M6.89651 3.4375H15.1035C15.189 3.4375 15.271 3.40355 15.3314 3.34311C15.3919 3.28267 15.4258 3.2007 15.4258 3.11523C15.4258 3.02976 15.3919 2.94779 15.3314 2.88736C15.271 2.82692 15.189 2.79297 15.1035 2.79297H6.89651C6.81104 2.79297 6.72907 2.82692 6.66864 2.88736C6.6082 2.94779 6.57425 3.02976 6.57425 3.11523C6.57425 3.2007 6.6082 3.28267 6.66864 3.34311C6.72907 3.40355 6.81104 3.4375 6.89651 3.4375ZM6.89651 7.30469H15.1035C15.189 7.30469 15.271 7.27074 15.3314 7.2103C15.3919 7.14986 15.4258 7.06789 15.4258 6.98242C15.4258 6.89695 15.3919 6.81498 15.3314 6.75455C15.271 6.69411 15.189 6.66016 15.1035 6.66016H6.89651C6.81104 6.66016 6.72907 6.69411 6.66864 6.75455C6.6082 6.81498 6.57425 6.89695 6.57425 6.98242C6.57425 7.06789 6.6082 7.14986 6.66864 7.2103C6.72907 7.27074 6.81104 7.30469 6.89651 7.30469ZM6.89651 5.37109H15.1035C15.189 5.37109 15.271 5.33714 15.3314 5.2767C15.3919 5.21627 15.4258 5.1343 15.4258 5.04883C15.4258 4.96336 15.3919 4.88139 15.3314 4.82095C15.271 4.76052 15.189 4.72656 15.1035 4.72656H6.89651C6.81104 4.72656 6.72907 4.76052 6.66864 4.82095C6.6082 4.88139 6.57425 4.96336 6.57425 5.04883C6.57425 5.1343 6.6082 5.21627 6.66864 5.2767C6.72907 5.33714 6.81104 5.37109 6.89651 5.37109ZM21.7169 4.15135L21.2611 3.69561C21.0798 3.5143 20.8339 3.41245 20.5775 3.41245C20.3211 3.41245 20.0752 3.5143 19.8938 3.69561L18.3907 5.1988V1.61133C18.3902 1.18412 18.2203 0.774556 17.9182 0.472478C17.6161 0.170399 17.2065 0.000480618 16.7793 0H5.22073C4.79353 0.000480731 4.38396 0.1704 4.08188 0.472478C3.7798 0.774557 3.60988 1.18412 3.6094 1.61133V18.3477H1.86896C1.82664 18.3477 1.78473 18.356 1.74563 18.3722C1.70653 18.3884 1.671 18.4121 1.64107 18.442C1.61115 18.472 1.58741 18.5075 1.57122 18.5466C1.55502 18.5857 1.54669 18.6276 1.54669 18.6699V20.3887C1.54717 20.8159 1.71709 21.2254 2.01917 21.5275C2.32125 21.8296 2.73082 21.9995 3.15802 22H16.8221C16.8338 22 16.8455 21.9993 16.8571 21.998C17.2703 21.9776 17.6599 21.7992 17.9453 21.4997C18.2307 21.2001 18.3902 20.8024 18.3907 20.3887V8.84489L21.7169 5.51867C21.8979 5.33721 21.9996 5.09134 21.9996 4.83501C21.9996 4.57868 21.8979 4.33282 21.7169 4.15135ZM3.15802 21.3555C2.9017 21.3552 2.65596 21.2532 2.47472 21.072C2.29347 20.8907 2.19152 20.645 2.19122 20.3887V18.9922H15.0389V20.3242C15.0386 20.6982 15.1641 21.0614 15.3952 21.3555H3.15802ZM17.7461 18.6658C17.7461 18.6672 17.7459 18.6685 17.7459 18.6699V20.3242C17.7459 20.5977 17.6373 20.86 17.4439 21.0534C17.2505 21.2468 16.9882 21.3555 16.7147 21.3555C16.4412 21.3555 16.1789 21.2468 15.9855 21.0534C15.7921 20.86 15.6834 20.5977 15.6834 20.3242V18.6699C15.6834 18.6276 15.6751 18.5857 15.6589 18.5466C15.6427 18.5075 15.619 18.472 15.589 18.442C15.5591 18.4121 15.5236 18.3884 15.4845 18.3722C15.4454 18.356 15.4035 18.3477 15.3611 18.3477C15.3539 18.3477 15.3468 18.3483 15.3397 18.3487C15.3325 18.3483 15.3254 18.3477 15.3182 18.3477H4.25393V1.61133C4.25423 1.35501 4.35618 1.10927 4.53743 0.928024C4.71867 0.746778 4.96441 0.644825 5.22073 0.644531H16.7793C17.0356 0.644825 17.2814 0.746778 17.4626 0.928024C17.6439 1.10927 17.7458 1.35501 17.7461 1.61133V5.84333L11.773 11.8164H6.89651C6.81104 11.8164 6.72907 11.8504 6.66864 11.9108C6.6082 11.9712 6.57425 12.0532 6.57425 12.1387C6.57425 12.2241 6.6082 12.3061 6.66864 12.3665C6.72907 12.427 6.81104 12.4609 6.89651 12.4609H11.1285L9.86727 13.7222C9.85889 13.7306 9.85099 13.7395 9.84359 13.7488L9.8427 13.75H6.89651C6.81104 13.75 6.72907 13.784 6.66864 13.8444C6.6082 13.9048 6.57425 13.9868 6.57425 14.0723C6.57425 14.1577 6.6082 14.2397 6.66864 14.3001C6.72907 14.3606 6.81104 14.3945 6.89651 14.3945H9.6073L9.17761 15.6836H6.89651C6.81104 15.6836 6.72907 15.7175 6.66864 15.778C6.6082 15.8384 6.57425 15.9204 6.57425 16.0059C6.57425 16.0913 6.6082 16.1733 6.66864 16.2337C6.72907 16.2942 6.81104 16.3281 6.89651 16.3281H9.30276C9.32605 16.3281 9.34926 16.3255 9.372 16.3205C9.41958 16.3268 9.46799 16.3221 9.51345 16.3067L11.5644 15.623C11.5665 15.6224 11.5684 15.6213 11.5705 15.6206C11.5784 15.6178 11.5861 15.6147 11.5938 15.6113C11.5971 15.6098 11.6004 15.6083 11.6036 15.6067C11.6111 15.6031 11.6184 15.5991 11.6257 15.5948C11.6287 15.593 11.6317 15.5914 11.6347 15.5895C11.642 15.5848 11.6492 15.5797 11.6562 15.5744C11.6587 15.5725 11.6613 15.5708 11.6638 15.5688C11.6731 15.5615 11.6819 15.5536 11.6903 15.5452L12.841 14.3945H15.1035C15.189 14.3945 15.271 14.3606 15.3314 14.3001C15.3919 14.2397 15.4258 14.1577 15.4258 14.0723C15.4258 13.9868 15.3919 13.9048 15.3314 13.8444C15.271 13.784 15.189 13.75 15.1035 13.75H13.4855L17.7461 9.48942V18.6658ZM10.236 14.5467L10.8658 15.1765L9.92107 15.4914L10.236 14.5467ZM11.4624 14.8615L10.551 13.9501L18.2956 6.20544L18.2969 6.20414L19.1392 5.36186L20.0506 6.27335L11.4624 14.8615ZM21.2611 5.06289L20.5064 5.81757L19.595 4.90608L20.3496 4.15139C20.3795 4.12146 20.4151 4.09772 20.4542 4.08152C20.4933 4.06532 20.5352 4.05698 20.5775 4.05698C20.6198 4.05698 20.6617 4.06532 20.7008 4.08152C20.7399 4.09772 20.7754 4.12146 20.8053 4.15139L21.2611 4.60714C21.3214 4.66762 21.3553 4.74957 21.3553 4.83501C21.3553 4.92046 21.3214 5.00241 21.2611 5.06289Z" fill="#3C3B41"/>
</svg>
